<svg width="788" height="429" viewBox="0 0 788 429" fill="none" xmlns="http://www.w3.org/2000/svg">
<g clip-path="url(#clip0)">
<path d="M178.179 372.278C178.028 389.492 176.767 406.68 174.404 423.732C174.322 424.331 174.231 424.93 174.148 425.529L12.9314 424.628C12.4581 424.033 11.9922 423.431 11.5407 422.822C10.0356 420.807 8.62493 418.734 7.32993 416.589C1.10557 406.258 -1.74401 394.162 1.11154 385.816L1.16268 385.686C1.77908 383.859 2.7504 382.171 4.02086 380.72C10.5315 373.391 23.6952 374.613 35.6411 380.528C24.9265 368.8 16.3948 354.001 15.7466 340.79C15.1109 327.905 21.8485 318.701 29.1562 310.878C29.396 310.62 29.6357 310.368 29.8755 310.117C29.9918 309.987 30.1152 309.865 30.2312 309.736C35.9328 303.775 42.5799 297.898 52.201 298.609C62.753 299.39 74.4519 308.229 82.6547 318.528C90.8575 328.82 96.3085 340.511 101.834 351.922C107.366 363.325 113.351 375.02 122.229 384.767C110.205 369.558 100.51 352.254 96.9292 335.424C93.3481 318.595 96.4998 302.431 107.216 294.505C110.469 292.173 114.234 290.654 118.195 290.075C118.657 289.998 119.127 289.936 119.604 289.88C129.524 288.752 141.368 292.183 151.446 300.384C162.544 309.414 170.238 322.801 174.067 335.509C177.895 348.217 178.303 360.451 178.179 372.278Z" fill="#F2F2F2"/>
<path d="M72.7018 424.962L69.6191 424.945C68.6402 424.333 67.6567 423.728 66.6687 423.13C66.057 422.744 65.4382 422.372 64.8191 421.994C54.5935 415.748 44.304 409.758 33.9505 404.022C23.6064 398.282 13.2104 392.806 2.76231 387.594C2.48536 387.474 2.25941 387.26 2.12373 386.99C1.98804 386.72 1.95118 386.411 2.01958 386.117C2.03078 386.079 2.04813 386.042 2.07096 386.009C2.21669 385.736 2.54239 385.622 3.01775 385.856C4.29928 386.498 5.58821 387.141 6.86965 387.798C17.3463 393.098 27.7779 398.664 38.1646 404.493C48.5441 410.321 58.8645 416.405 69.1258 422.747C69.3415 422.878 69.5576 423.016 69.7733 423.148C70.7518 423.752 71.7234 424.357 72.7018 424.962Z" fill="white"/>
<path d="M112.45 425.184L110.544 425.173C110.114 424.572 109.692 423.97 109.262 423.368C99.1599 409.203 89.0604 395.037 78.963 380.872C62.4273 357.68 45.8965 334.489 29.3707 311.298C29.2728 311.173 29.1999 311.031 29.1563 310.878C29.0149 310.365 29.3921 310.064 29.8755 310.117C30.0793 310.146 30.2746 310.218 30.4483 310.329C30.622 310.439 30.7701 310.586 30.8828 310.758C40.1535 323.764 49.422 336.764 58.6881 349.76C75.1377 372.835 91.585 395.908 108.03 418.978C109.076 420.443 110.122 421.914 111.168 423.379C111.598 423.981 112.028 424.582 112.45 425.184Z" fill="white"/>
<path d="M154.919 414.114C154.822 417.326 154.609 420.488 154.331 423.62C154.277 424.219 154.224 424.818 154.17 425.417L152.17 425.406C152.231 424.807 152.292 424.208 152.346 423.609C152.768 419.084 153.068 414.508 153.109 409.807C153.162 396.776 151.892 383.772 149.318 370.997C146.583 357.242 142.655 343.75 137.579 330.676C132.251 316.887 125.828 303.547 118.371 290.783C118.231 290.575 118.168 290.324 118.195 290.075C118.277 289.505 119.036 289.336 119.604 289.88C119.716 289.987 119.812 290.109 119.89 290.243C120.813 291.83 121.719 293.421 122.608 295.017C129.79 307.851 135.937 321.238 140.992 335.049C145.806 348.166 149.468 361.678 151.936 375.431C154.248 388.189 155.248 401.151 154.919 414.114V414.114Z" fill="white"/>
<path d="M276.781 219.337C275.97 218.111 274.901 217.076 273.648 216.308C272.395 215.539 270.988 215.055 269.528 214.888C268.067 214.722 266.588 214.878 265.194 215.345C263.8 215.813 262.526 216.58 261.46 217.593L229.706 201.203L231.68 219.667L261.532 232.401C263.352 234.078 265.725 235.028 268.2 235.073C270.674 235.117 273.079 234.252 274.959 232.642C276.838 231.032 278.062 228.788 278.398 226.336C278.734 223.884 278.158 221.393 276.781 219.337H276.781Z" fill="#FFB8B8"/>
<path d="M248.56 226.769C247.986 227.033 247.362 227.173 246.73 227.179C246.098 227.186 245.472 227.06 244.892 226.808L214.729 213.724C204.416 209.252 196.079 201.186 191.267 191.027L175.41 157.556C174.24 156.052 173.378 154.333 172.872 152.496C172.367 150.659 172.229 148.74 172.466 146.85C172.702 144.959 173.31 143.134 174.252 141.479C175.195 139.823 176.455 138.369 177.96 137.201C179.464 136.033 181.185 135.172 183.022 134.669C184.86 134.166 186.779 134.03 188.669 134.269C190.559 134.508 192.384 135.118 194.038 136.062C195.693 137.007 197.145 138.269 198.311 139.775L226.184 191.489L251.921 210.93C252.657 211.489 253.205 212.261 253.488 213.141C253.772 214.021 253.779 214.967 253.507 215.851L250.981 224.011C250.71 224.886 250.178 225.657 249.457 226.222C249.181 226.439 248.88 226.623 248.56 226.769V226.769Z" fill="#CCCCCC"/>
<path d="M174.712 118.192C188.277 118.192 199.273 107.196 199.273 93.6309C199.273 80.0662 188.277 69.0699 174.712 69.0699C161.148 69.0699 150.151 80.0662 150.151 93.6309C150.151 107.196 161.148 118.192 174.712 118.192Z" fill="#FFB8B8"/>
<path d="M184.661 415.827H196.92L202.753 368.539H184.658L184.661 415.827Z" fill="#FFB8B8"/>
<path d="M220.565 427.21L182.034 427.211L182.033 412.325L205.677 412.323C209.625 412.323 213.412 413.892 216.204 416.683C218.996 419.475 220.565 423.261 220.565 427.21V427.21L220.565 427.21Z" fill="#2F2E41"/>
<path d="M144.661 415.827H156.92L162.753 368.539H144.658L144.661 415.827Z" fill="#FFB8B8"/>
<path d="M180.565 427.21L142.034 427.211L142.033 412.325L165.677 412.323C169.625 412.323 173.412 413.892 176.204 416.683C178.996 419.475 180.565 423.261 180.565 427.21V427.21L180.565 427.21Z" fill="#2F2E41"/>
<path d="M140.38 402.292C139.957 401.809 139.643 401.242 139.458 400.629C139.272 400.015 139.22 399.369 139.305 398.733L160.769 237.748L214.098 246.804L219.789 243.389L205.072 396.133C204.95 397.165 204.475 398.122 203.729 398.844C202.983 399.566 202.01 400.009 200.976 400.097L184.828 401.443C184.186 401.497 183.54 401.412 182.934 401.194C182.327 400.977 181.775 400.631 181.313 400.182C180.852 399.732 180.493 399.189 180.259 398.588C180.026 397.988 179.925 397.344 179.962 396.701L184.142 323.959C184.15 323.835 184.111 323.713 184.034 323.616C183.956 323.52 183.846 323.455 183.724 323.435C183.601 323.415 183.476 323.442 183.372 323.509C183.268 323.576 183.193 323.679 183.16 323.798L162.477 400.499C162.219 401.453 161.653 402.297 160.868 402.898C160.083 403.5 159.122 403.826 158.133 403.828H143.766C143.124 403.828 142.49 403.691 141.907 403.426C141.323 403.161 140.802 402.774 140.38 402.292Z" fill="#2F2E41"/>
<path d="M177.312 249.016C176.7 248.462 175.913 248.14 175.088 248.105C174.263 248.071 173.452 248.326 172.796 248.828L162.134 257.121C161.554 257.573 160.872 257.877 160.147 258.004C159.422 258.131 158.677 258.079 157.978 257.851C157.278 257.623 156.645 257.227 156.134 256.698C155.623 256.168 155.25 255.522 155.047 254.814C149.817 236.499 137.968 190.396 140.887 157.948C142.542 139.555 158.425 125.577 176.292 126.75C188.508 127.564 196.544 134.611 200.178 147.694C209.101 179.816 218.907 238.738 220.782 250.224C220.93 251.115 220.805 252.03 220.424 252.849C220.042 253.668 219.422 254.353 218.645 254.813C213.601 257.842 207.837 259.464 201.953 259.51C194.834 259.51 186.298 257.032 177.312 249.016Z" fill="#CCCCCC"/>
<path d="M181.335 260.443C181.455 258.978 181.251 257.504 180.739 256.126C180.228 254.748 179.42 253.499 178.373 252.466C177.327 251.434 176.066 250.644 174.681 250.151C173.296 249.659 171.82 249.476 170.356 249.616L155.484 217.123L145.643 232.87L161.274 261.312C161.672 263.755 162.952 265.967 164.872 267.529C166.792 269.091 169.218 269.895 171.691 269.788C174.163 269.681 176.511 268.67 178.289 266.948C180.066 265.226 181.15 262.911 181.335 260.443H181.335Z" fill="#FFB8B8"/>
<path d="M154.543 248.876C153.928 248.728 153.351 248.454 152.85 248.069C152.348 247.684 151.933 247.198 151.632 246.642L135.973 217.733C130.617 207.85 129.034 196.357 131.518 185.394L139.697 149.271C139.704 147.366 140.087 145.482 140.823 143.725C141.559 141.968 142.635 140.373 143.988 139.032C145.341 137.691 146.944 136.63 148.708 135.909C150.471 135.188 152.359 134.822 154.264 134.831C156.169 134.841 158.053 135.225 159.809 135.963C161.565 136.701 163.159 137.778 164.499 139.132C165.838 140.487 166.898 142.092 167.617 143.855C168.336 145.619 168.701 147.508 168.689 149.413L158.708 207.305L166.962 238.486C167.196 239.381 167.151 240.326 166.831 241.193C166.511 242.061 165.932 242.809 165.173 243.338L158.15 248.199C157.397 248.72 156.502 248.999 155.586 248.999C155.235 248.999 154.885 248.958 154.543 248.876V248.876Z" fill="#CCCCCC"/>
<path opacity="0.2" d="M166.697 173.828L157.697 211.828L170.697 243.828L161.697 212.828L166.697 173.828Z" fill="black"/>
<path d="M160.697 113.828C158.512 113.868 156.341 113.476 154.309 112.672C153.415 112.327 152.487 112.044 151.594 111.699C143.712 108.654 138.52 100.26 138.334 91.813C138.148 83.3655 142.523 75.1665 149.019 69.7632C155.515 64.3598 163.929 61.5857 172.354 60.9442C181.429 60.2532 191.648 62.5546 196.719 70.1124C198.069 72.1242 199.013 74.565 198.213 76.994C197.974 77.727 197.546 78.3842 196.973 78.8999C194.708 80.9148 192.45 79.3998 190.141 79.2659C186.968 79.0819 184.118 81.6505 183.094 84.6595C182.069 87.6685 182.52 90.9811 183.347 94.0502C183.977 95.8969 184.375 97.8151 184.53 99.7603C184.597 100.736 184.413 101.712 183.997 102.596C183.581 103.481 182.945 104.245 182.151 104.815C180.168 106.014 177.564 105.32 175.58 104.123C173.596 102.927 171.882 101.263 169.739 100.382C167.596 99.5016 164.716 99.6969 163.469 101.649C163.072 102.36 162.804 103.135 162.676 103.938C161.558 109.033 161.815 108.733 160.697 113.828L160.697 113.828Z" fill="#2F2E41"/>
<path d="M373.648 197.178C373.241 196.663 372.956 196.061 372.816 195.419C372.676 194.777 372.685 194.112 372.841 193.473C376.57 177.851 376.57 161.57 372.841 145.948C372.685 145.31 372.676 144.644 372.816 144.002C372.956 143.36 373.241 142.758 373.648 142.243C374.047 141.735 374.557 141.324 375.138 141.042C375.719 140.761 376.357 140.615 377.003 140.617H416.876C417.895 140.619 418.88 140.983 419.656 141.643C420.432 142.303 420.948 143.218 421.113 144.223C423.714 161.115 423.714 178.306 421.113 195.198C420.948 196.204 420.432 197.118 419.656 197.778C418.88 198.439 417.895 198.802 416.876 198.804H377.003C376.357 198.806 375.719 198.661 375.138 198.379C374.557 198.097 374.047 197.687 373.648 197.178V197.178Z" fill="#E6E6E6"/>
<path d="M311.967 56.5605C311.56 56.0451 311.275 55.4435 311.135 54.8016C310.995 54.1596 311.004 53.4942 311.16 52.856C314.89 37.2338 314.89 20.953 311.16 5.33082C311.004 4.69261 310.995 4.0272 311.135 3.38523C311.275 2.74326 311.56 2.14167 311.967 1.62626C312.366 1.11779 312.875 0.707024 313.457 0.425208C314.038 0.143391 314.676 -0.00202827 315.322 2.13694e-05H355.195C356.214 0.00207482 357.199 0.365587 357.975 1.02587C358.751 1.68615 359.267 2.60035 359.432 3.60572C362.033 20.498 362.033 37.6888 359.432 54.5811C359.267 55.5864 358.751 56.5006 357.975 57.1609C357.199 57.8212 356.214 58.1847 355.195 58.1868H315.322C314.676 58.1888 314.038 58.0434 313.457 57.7616C312.875 57.4798 312.366 57.069 311.967 56.5605Z" fill="#E6E6E6"/>
<path d="M410.079 103.598C407.478 86.7061 407.478 69.5153 410.079 52.623C410.244 51.6176 410.76 50.7034 411.536 50.0431C412.312 49.3827 413.297 49.0192 414.316 49.0173H454.188C454.834 49.0153 455.472 49.1607 456.054 49.4425C456.635 49.7243 457.145 50.1351 457.543 50.6436C457.951 51.159 458.235 51.7606 458.375 52.4025C458.515 53.0445 458.507 53.7099 458.351 54.3481C454.621 69.9703 454.621 86.2511 458.35 101.873C458.507 102.511 458.515 103.177 458.375 103.819C458.235 104.461 457.951 105.062 457.543 105.578C457.145 106.086 456.635 106.497 456.054 106.779C455.472 107.061 454.834 107.206 454.188 107.204H414.316C413.297 107.202 412.312 106.839 411.536 106.178C410.76 105.518 410.244 104.604 410.079 103.598V103.598Z" fill="#6C63FF"/>
<path d="M243.156 101.819C240.555 84.9262 240.555 67.7354 243.156 50.8431C243.321 49.8378 243.837 48.9236 244.613 48.2633C245.389 47.603 246.374 47.2395 247.393 47.2374H287.265C287.912 47.2354 288.55 47.3808 289.131 47.6626C289.712 47.9444 290.222 48.3552 290.621 48.8637C291.028 49.3791 291.313 49.9807 291.453 50.6226C291.592 51.2646 291.584 51.93 291.428 52.5683C287.698 68.1904 287.698 84.4712 291.428 100.093C291.584 100.732 291.592 101.397 291.453 102.039C291.313 102.681 291.028 103.283 290.621 103.798C290.222 104.306 289.712 104.717 289.131 104.999C288.55 105.281 287.912 105.426 287.265 105.424H247.393C246.374 105.422 245.389 105.059 244.613 104.398C243.837 103.738 243.321 102.824 243.156 101.819Z" fill="#FF6584"/>
<path d="M253.018 219.49C252.603 218.966 252.314 218.355 252.172 217.702C252.03 217.05 252.038 216.373 252.197 215.724C255.988 199.846 255.988 183.297 252.197 167.418C252.038 166.77 252.03 166.093 252.172 165.441C252.314 164.788 252.604 164.176 253.018 163.652C253.423 163.136 253.941 162.718 254.532 162.432C255.123 162.146 255.771 161.998 256.428 162H296.955C297.991 162.002 298.992 162.371 299.781 163.043C300.57 163.714 301.094 164.643 301.262 165.665C303.906 182.835 303.906 200.308 301.262 217.478C301.094 218.5 300.57 219.429 299.781 220.1C298.992 220.771 297.991 221.141 296.955 221.143H256.428C255.771 221.145 255.123 220.997 254.532 220.711C253.941 220.424 253.423 220.007 253.018 219.49V219.49Z" fill="#6C63FF"/>
<path d="M12.582 428.128H785.876C786.192 428.128 786.495 428.002 786.718 427.779C786.941 427.556 787.067 427.253 787.067 426.937C787.067 426.621 786.941 426.318 786.718 426.095C786.495 425.872 786.192 425.746 785.876 425.746H12.582C12.4253 425.746 12.2701 425.776 12.1252 425.836C11.9804 425.896 11.8487 425.983 11.7378 426.094C11.6269 426.204 11.5388 426.336 11.4788 426.481C11.4187 426.625 11.3878 426.78 11.3878 426.937C11.3878 427.094 11.4187 427.249 11.4788 427.393C11.5388 427.538 11.6269 427.67 11.7378 427.78C11.8487 427.891 11.9804 427.978 12.1252 428.038C12.2701 428.098 12.4253 428.128 12.582 428.128V428.128Z" fill="#3F3D56"/>
<path d="M289.135 183.822H267.785C266.99 183.821 266.227 183.505 265.665 182.942C265.103 182.38 264.786 181.617 264.785 180.822V179.548C264.786 178.752 265.103 177.99 265.665 177.427C266.227 176.865 266.99 176.549 267.785 176.548H289.135C289.93 176.549 290.693 176.865 291.255 177.427C291.817 177.99 292.134 178.752 292.135 179.548V180.822C292.134 181.617 291.817 182.38 291.255 182.942C290.693 183.505 289.93 183.821 289.135 183.822V183.822Z" fill="white"/>
<path d="M289.135 196.369H267.785C266.99 196.368 266.227 196.052 265.665 195.49C265.103 194.927 264.786 194.165 264.785 193.369V192.095C264.786 191.3 265.103 190.537 265.665 189.975C266.227 189.412 266.99 189.096 267.785 189.095H289.135C289.93 189.096 290.693 189.412 291.255 189.975C291.817 190.537 292.134 191.3 292.135 192.095V193.369C292.134 194.165 291.817 194.927 291.255 195.49C290.693 196.052 289.93 196.368 289.135 196.369V196.369Z" fill="white"/>
<path d="M274.995 71.9141H254.072C253.276 71.9132 252.514 71.5968 251.951 71.0344C251.389 70.472 251.073 69.7094 251.072 68.9141V67.7422C251.073 66.9468 251.389 66.1842 251.951 65.6218C252.514 65.0594 253.276 64.7431 254.072 64.7422H274.995C275.791 64.7431 276.553 65.0594 277.116 65.6218C277.678 66.1842 277.994 66.9468 277.995 67.7422V68.9141C277.994 69.7094 277.678 70.472 277.116 71.0344C276.553 71.5968 275.791 71.9132 274.995 71.9141V71.9141Z" fill="white"/>
<path d="M408.675 160.043H387.751C386.956 160.043 386.193 159.726 385.631 159.164C385.069 158.601 384.752 157.839 384.751 157.043V155.871C384.752 155.076 385.069 154.313 385.631 153.751C386.193 153.188 386.956 152.872 387.751 152.871H408.675C409.47 152.872 410.233 153.188 410.795 153.751C411.358 154.313 411.674 155.076 411.675 155.871V157.043C411.674 157.839 411.358 158.601 410.795 159.164C410.233 159.726 409.47 160.043 408.675 160.043Z" fill="white"/>
<path d="M408.675 174.857H387.751C386.956 174.856 386.193 174.54 385.631 173.977C385.069 173.415 384.752 172.652 384.751 171.857V170.685C384.752 169.889 385.069 169.127 385.631 168.564C386.193 168.002 386.956 167.685 387.751 167.685H408.675C409.47 167.685 410.233 168.002 410.795 168.564C411.358 169.127 411.674 169.889 411.675 170.685V171.857C411.674 172.652 411.358 173.415 410.795 173.977C410.233 174.54 409.47 174.856 408.675 174.857Z" fill="white"/>
<path d="M408.675 189.67H387.751C386.956 189.67 386.193 189.353 385.631 188.791C385.069 188.228 384.752 187.466 384.751 186.67V185.498C384.752 184.703 385.069 183.94 385.631 183.378C386.193 182.815 386.956 182.499 387.751 182.498H408.675C409.47 182.499 410.233 182.815 410.795 183.378C411.358 183.94 411.674 184.703 411.675 185.498V186.67C411.674 187.466 411.358 188.228 410.795 188.791C410.233 189.353 409.47 189.67 408.675 189.67V189.67Z" fill="white"/>
<path d="M274.995 84.2588H254.072C253.276 84.2579 252.514 83.9416 251.951 83.3792C251.389 82.8167 251.073 82.0542 251.072 81.2588V80.0864C251.073 79.291 251.389 78.5285 251.951 77.9661C252.514 77.4036 253.276 77.0873 254.072 77.0864H274.995C275.791 77.0873 276.553 77.4036 277.116 77.9661C277.678 78.5285 277.994 79.291 277.995 80.0864V81.2588C277.994 82.0542 277.678 82.8167 277.116 83.3792C276.553 83.9416 275.791 84.2579 274.995 84.2588Z" fill="white"/>
<path d="M347.172 21.895H326.249C325.454 21.8942 324.691 21.5778 324.129 21.0154C323.566 20.453 323.25 19.6904 323.249 18.895V17.7227C323.25 16.9273 323.566 16.1647 324.129 15.6023C324.691 15.0399 325.454 14.7235 326.249 14.7227H347.172C347.968 14.7235 348.73 15.0399 349.293 15.6023C349.855 16.1647 350.171 16.9273 350.172 17.7227V18.895C350.171 19.6904 349.855 20.453 349.293 21.0154C348.73 21.5778 347.968 21.8942 347.172 21.895V21.895Z" fill="#6C63FF"/>
<path d="M442.646 74.9287H421.723C420.927 74.9278 420.165 74.6115 419.602 74.0491C419.04 73.4867 418.723 72.7241 418.723 71.9287V70.7563C418.723 69.961 419.04 69.1984 419.602 68.636C420.165 68.0736 420.927 67.7572 421.723 67.7563H442.646C443.442 67.7572 444.204 68.0736 444.767 68.636C445.329 69.1984 445.645 69.961 445.646 70.7563V71.9287C445.645 72.7241 445.329 73.4867 444.767 74.0491C444.204 74.6115 443.442 74.9278 442.646 74.9287Z" fill="white"/>
<path d="M618.114 22.9338C614.542 22.9338 611.647 20.0385 611.647 16.4669C611.647 12.8953 614.542 10 618.114 10C621.686 10 624.581 12.8953 624.581 16.4669C624.581 20.0385 621.686 22.9338 618.114 22.9338Z" fill="#F2F2F2"/>
<path d="M643.887 22.9338C640.316 22.9338 637.42 20.0385 637.42 16.4669C637.42 12.8953 640.316 10 643.887 10C647.459 10 650.354 12.8953 650.354 16.4669C650.354 20.0385 647.459 22.9338 643.887 22.9338Z" fill="#F2F2F2"/>
<path d="M669.661 22.9338C666.089 22.9338 663.194 20.0385 663.194 16.4669C663.194 12.8953 666.089 10 669.661 10C673.232 10 676.128 12.8953 676.128 16.4669C676.128 20.0385 673.232 22.9338 669.661 22.9338Z" fill="#F2F2F2"/>
<path d="M695.434 22.9338C691.862 22.9338 688.967 20.0385 688.967 16.4669C688.967 12.8953 691.862 10 695.434 10C699.005 10 701.901 12.8953 701.901 16.4669C701.901 20.0385 699.005 22.9338 695.434 22.9338Z" fill="#F2F2F2"/>
<path d="M618.114 49.9338C614.542 49.9338 611.647 47.0385 611.647 43.4669C611.647 39.8953 614.542 37 618.114 37C621.686 37 624.581 39.8953 624.581 43.4669C624.581 47.0385 621.686 49.9338 618.114 49.9338Z" fill="#F2F2F2"/>
<path d="M643.887 49.9338C640.316 49.9338 637.42 47.0385 637.42 43.4669C637.42 39.8953 640.316 37 643.887 37C647.459 37 650.354 39.8953 650.354 43.4669C650.354 47.0385 647.459 49.9338 643.887 49.9338Z" fill="#F2F2F2"/>
<path d="M669.661 49.9338C666.089 49.9338 663.194 47.0385 663.194 43.4669C663.194 39.8953 666.089 37 669.661 37C673.232 37 676.128 39.8953 676.128 43.4669C676.128 47.0385 673.232 49.9338 669.661 49.9338Z" fill="#F2F2F2"/>
<path d="M695.434 49.9338C691.862 49.9338 688.967 47.0385 688.967 43.4669C688.967 39.8953 691.862 37 695.434 37C699.005 37 701.901 39.8953 701.901 43.4669C701.901 47.0385 699.005 49.9338 695.434 49.9338Z" fill="#F2F2F2"/>
<path d="M618.114 76.9338C614.542 76.9338 611.647 74.0385 611.647 70.4669C611.647 66.8953 614.542 64 618.114 64C621.686 64 624.581 66.8953 624.581 70.4669C624.581 74.0385 621.686 76.9338 618.114 76.9338Z" fill="#F2F2F2"/>
<path d="M643.887 76.9338C640.316 76.9338 637.42 74.0385 637.42 70.4669C637.42 66.8953 640.316 64 643.887 64C647.459 64 650.354 66.8953 650.354 70.4669C650.354 74.0385 647.459 76.9338 643.887 76.9338Z" fill="#F2F2F2"/>
<path d="M669.661 76.9338C666.089 76.9338 663.194 74.0385 663.194 70.4669C663.194 66.8953 666.089 64 669.661 64C673.232 64 676.128 66.8953 676.128 70.4669C676.128 74.0385 673.232 76.9338 669.661 76.9338Z" fill="#F2F2F2"/>
<path d="M695.434 76.9338C691.862 76.9338 688.967 74.0385 688.967 70.4669C688.967 66.8953 691.862 64 695.434 64C699.005 64 701.901 66.8953 701.901 70.4669C701.901 74.0385 699.005 76.9338 695.434 76.9338Z" fill="#F2F2F2"/>
<path d="M618.114 103.934C614.542 103.934 611.647 101.038 611.647 97.4669C611.647 93.8953 614.542 91 618.114 91C621.686 91 624.581 93.8953 624.581 97.4669C624.581 101.038 621.686 103.934 618.114 103.934Z" fill="#F2F2F2"/>
<path d="M643.887 103.934C640.316 103.934 637.42 101.038 637.42 97.4669C637.42 93.8953 640.316 91 643.887 91C647.459 91 650.354 93.8953 650.354 97.4669C650.354 101.038 647.459 103.934 643.887 103.934Z" fill="#F2F2F2"/>
<path d="M669.661 103.934C666.089 103.934 663.194 101.038 663.194 97.4669C663.194 93.8953 666.089 91 669.661 91C673.232 91 676.128 93.8953 676.128 97.4669C676.128 101.038 673.232 103.934 669.661 103.934Z" fill="#F2F2F2"/>
<path d="M695.434 103.934C691.862 103.934 688.967 101.038 688.967 97.4669C688.967 93.8953 691.862 91 695.434 91C699.005 91 701.901 93.8953 701.901 97.4669C701.901 101.038 699.005 103.934 695.434 103.934Z" fill="#F2F2F2"/>
<path d="M618.114 130.934C614.542 130.934 611.647 128.038 611.647 124.467C611.647 120.895 614.542 118 618.114 118C621.686 118 624.581 120.895 624.581 124.467C624.581 128.038 621.686 130.934 618.114 130.934Z" fill="#F2F2F2"/>
<path d="M643.887 130.934C640.316 130.934 637.42 128.038 637.42 124.467C637.42 120.895 640.316 118 643.887 118C647.459 118 650.354 120.895 650.354 124.467C650.354 128.038 647.459 130.934 643.887 130.934Z" fill="#F2F2F2"/>
<path d="M669.661 130.934C666.089 130.934 663.194 128.038 663.194 124.467C663.194 120.895 666.089 118 669.661 118C673.232 118 676.128 120.895 676.128 124.467C676.128 128.038 673.232 130.934 669.661 130.934Z" fill="#F2F2F2"/>
<path d="M695.434 130.934C691.862 130.934 688.967 128.038 688.967 124.467C688.967 120.895 691.862 118 695.434 118C699.005 118 701.901 120.895 701.901 124.467C701.901 128.038 699.005 130.934 695.434 130.934Z" fill="#F2F2F2"/>
<path d="M618.114 157.934C614.542 157.934 611.647 155.038 611.647 151.467C611.647 147.895 614.542 145 618.114 145C621.686 145 624.581 147.895 624.581 151.467C624.581 155.038 621.686 157.934 618.114 157.934Z" fill="#F2F2F2"/>
<path d="M643.887 157.934C640.316 157.934 637.42 155.038 637.42 151.467C637.42 147.895 640.316 145 643.887 145C647.459 145 650.354 147.895 650.354 151.467C650.354 155.038 647.459 157.934 643.887 157.934Z" fill="#F2F2F2"/>
<path d="M669.661 157.934C666.089 157.934 663.194 155.038 663.194 151.467C663.194 147.895 666.089 145 669.661 145C673.232 145 676.128 147.895 676.128 151.467C676.128 155.038 673.232 157.934 669.661 157.934Z" fill="#F2F2F2"/>
<path d="M695.434 157.934C691.862 157.934 688.967 155.038 688.967 151.467C688.967 147.895 691.862 145 695.434 145C699.005 145 701.901 147.895 701.901 151.467C701.901 155.038 699.005 157.934 695.434 157.934Z" fill="#F2F2F2"/>
<path d="M674.939 327.887V329.887C674.936 333.201 673.618 336.379 671.275 338.722C668.931 341.066 665.753 342.384 662.439 342.387H572.439C569.124 342.385 565.946 341.068 563.602 338.724C561.258 336.38 559.94 333.201 559.939 329.887V327.887C559.933 324.961 560.96 322.128 562.839 319.887C563.465 319.142 564.173 318.471 564.949 317.887C564.949 317.887 614.429 316.767 614.429 315.387H662.439C665.753 315.391 668.93 316.71 671.273 319.053C673.616 321.396 674.934 324.573 674.939 327.887V327.887Z" fill="#CCCCCC"/>
<path d="M610.216 341.89H623.216V425.89H610.216V341.89Z" fill="#CCCCCC"/>
<path d="M573.216 425.433C573.216 426.838 592.915 425.977 617.216 425.977C641.516 425.977 661.216 426.838 661.216 425.433C661.216 424.029 641.516 412.89 617.216 412.89C592.915 412.89 573.216 424.029 573.216 425.433Z" fill="#CCCCCC"/>
<path d="M591.089 326.19C590.15 324.931 589.499 323.481 589.182 321.943C588.864 320.405 588.888 318.816 589.251 317.288C589.613 315.76 590.307 314.33 591.282 313.099C592.258 311.868 593.491 310.866 594.896 310.164L622.449 216.278L643.429 226.554L609.749 315.609C610.773 318.047 610.867 320.775 610.014 323.278C609.16 325.781 607.419 327.884 605.118 329.188C602.818 330.492 600.12 330.907 597.534 330.355C594.948 329.802 592.655 328.321 591.089 326.19L591.089 326.19Z" fill="#A0616A"/>
<path d="M616.207 231.957L639.689 238.314C640.357 238.495 641.057 238.53 641.739 238.416C642.422 238.302 643.072 238.042 643.646 237.655C644.219 237.267 644.702 236.76 645.062 236.169C645.422 235.578 645.65 234.916 645.731 234.228L648.57 210.141C649.476 206.717 648.987 203.074 647.211 200.01C645.435 196.946 642.516 194.712 639.095 193.797C635.674 192.881 632.029 193.36 628.961 195.127C625.892 196.895 623.649 199.807 622.724 203.226L613.05 225.382C612.773 226.016 612.637 226.703 612.649 227.395C612.662 228.087 612.823 228.768 613.123 229.392C613.422 230.016 613.853 230.568 614.385 231.011C614.917 231.453 615.538 231.776 616.206 231.957H616.207Z" fill="#6C63FF"/>
<path d="M584.951 415.588L572.691 415.587L566.858 383.791H584.953L584.951 415.588Z" fill="#A0616A"/>
<path d="M588.079 411.585L563.935 411.584H563.934C561.913 411.584 559.912 411.982 558.046 412.755C556.179 413.528 554.483 414.661 553.054 416.09C551.625 417.519 550.492 419.215 549.719 421.082C548.945 422.949 548.547 424.95 548.547 426.97V427.47L588.078 427.472L588.079 411.585Z" fill="#2F2E41"/>
<path d="M570.721 398.537C570.864 398.537 571.007 398.53 571.151 398.516L588.118 397.281C588.804 397.217 589.466 396.997 590.054 396.637C590.641 396.277 591.138 395.786 591.506 395.204C591.874 394.621 592.104 393.962 592.176 393.277C592.249 392.592 592.164 391.899 591.927 391.252L569.22 340.237C569.058 339.782 568.992 339.299 569.026 338.817C569.059 338.335 569.193 337.866 569.417 337.438C569.64 337.005 569.953 336.625 570.334 336.322C570.715 336.018 571.156 335.799 571.628 335.678C582.305 332.887 609.7 325.456 633.414 316.76C643.574 313.035 649.973 307.651 652.433 300.759C655.676 291.672 650.878 283.385 650.673 283.037L650.512 282.764L628.197 284.793L604.006 286.85L550.992 315.278C546.55 317.68 543.176 321.668 541.542 326.446C539.907 331.224 540.133 336.443 542.174 341.062L566.615 395.87C566.968 396.664 567.544 397.338 568.273 397.811C569.002 398.285 569.852 398.537 570.721 398.537V398.537Z" fill="#2F2E41"/>
<path d="M624.317 183.864C610.752 183.864 599.756 172.867 599.756 159.303C599.756 145.738 610.752 134.742 624.317 134.742C637.882 134.742 648.878 145.738 648.878 159.303C648.878 172.867 637.882 183.864 624.317 183.864Z" fill="#A0616A"/>
<path d="M591.951 414.588L579.691 414.587L573.858 382.791H591.953L591.951 414.588Z" fill="#A0616A"/>
<path d="M595.079 410.585L570.935 410.584H570.934C568.913 410.584 566.912 410.982 565.046 411.755C563.179 412.528 561.483 413.661 560.054 415.09C558.625 416.519 557.492 418.215 556.719 420.082C555.945 421.949 555.547 423.95 555.547 425.97V426.47L595.078 426.472L595.079 410.585Z" fill="#2F2E41"/>
<path d="M577.721 401.537C577.864 401.537 578.007 401.53 578.151 401.516L595.118 400.281C595.804 400.217 596.466 399.997 597.054 399.637C597.641 399.277 598.138 398.786 598.506 398.204C598.874 397.621 599.104 396.962 599.176 396.277C599.249 395.592 599.164 394.899 598.927 394.252L576.22 343.237C576.058 342.782 575.992 342.299 576.026 341.817C576.059 341.335 576.193 340.866 576.417 340.438C576.64 340.005 576.953 339.625 577.334 339.322C577.715 339.018 578.156 338.799 578.628 338.678C589.305 335.887 616.7 328.456 640.414 319.76C650.574 316.035 656.973 310.651 659.433 303.759C662.676 294.672 657.878 286.385 657.673 286.037L657.512 285.764L635.197 287.793L611.006 289.85L557.992 318.278C553.55 320.68 550.176 324.668 548.542 329.446C546.907 334.224 547.133 339.443 549.174 344.062L573.615 398.87C573.968 399.664 574.544 400.338 575.273 400.811C576.002 401.285 576.852 401.537 577.721 401.537V401.537Z" fill="#2F2E41"/>
<path d="M616.742 197.791L642.742 188.791C642.742 188.791 659.064 201.331 651.223 232.439C647.13 248.493 648.322 265.438 654.623 280.76C655.382 282.655 656.256 284.503 657.242 286.291C657.242 286.291 628.242 321.291 601.242 295.291L611.742 244.791C611.742 244.791 595.242 211.291 616.742 197.791Z" fill="#2F2E41"/>
<path d="M621.268 184.699C624.763 179.467 627.522 172.211 623.673 167.233C619.874 162.319 612.381 163.043 606.563 160.868C598.459 157.84 593.759 148.319 595.224 139.793C596.69 131.266 603.535 124.198 611.688 121.306C619.842 118.414 629.037 119.355 637.021 122.685C646.851 126.785 655.283 134.715 658.818 144.761C662.354 154.807 660.464 166.869 653.129 174.591C645.265 182.869 632.924 185.076 621.506 184.942" fill="#2F2E41"/>
<path d="M644.114 140.066C648.519 143.652 655.24 142.06 659.968 138.912C664.696 135.765 668.533 131.284 673.649 128.817C682.668 124.467 693.573 127.359 702.351 132.177C711.129 136.995 718.91 143.652 728.182 147.433C737.454 151.214 749.286 151.401 756.307 144.261C758.035 149.267 758.176 154.684 756.711 159.773C755.247 164.862 752.248 169.376 748.123 172.697C743.999 176.019 738.95 177.987 733.666 178.334C728.382 178.68 723.119 177.388 718.597 174.633C708.437 168.445 702.826 155.469 691.431 152.054C685.125 150.164 678.354 151.686 671.982 153.335C665.609 154.983 658.964 156.765 652.532 155.361C646.101 153.958 640.085 148.178 640.904 141.647L644.114 140.066Z" fill="#2F2E41"/>
<path d="M564.161 371.493C566.761 354.601 566.761 337.41 564.161 320.518C563.996 319.513 563.479 318.598 562.703 317.938C561.927 317.278 560.942 316.914 559.924 316.912H520.051C519.405 316.91 518.767 317.056 518.185 317.337C517.604 317.619 517.095 318.03 516.696 318.538C516.288 319.054 516.004 319.655 515.864 320.297C515.724 320.939 515.732 321.605 515.888 322.243C519.618 337.865 519.618 354.146 515.889 369.768C515.733 370.406 515.724 371.072 515.864 371.714C516.004 372.356 516.288 372.957 516.696 373.473C517.095 373.981 517.604 374.392 518.185 374.674C518.767 374.956 519.405 375.101 520.051 375.099H559.924C560.942 375.097 561.927 374.733 562.703 374.073C563.479 373.413 563.996 372.499 564.161 371.493V371.493Z" fill="#6C63FF"/>
<path d="M532.321 341.589H553.245C554.04 341.588 554.803 341.272 555.365 340.709C555.928 340.147 556.244 339.384 556.245 338.589V337.417C556.244 336.622 555.928 335.859 555.365 335.297C554.803 334.734 554.04 334.418 553.245 334.417H532.321C531.526 334.418 530.763 334.734 530.201 335.297C529.638 335.859 529.322 336.622 529.321 337.417V338.589C529.322 339.384 529.638 340.147 530.201 340.709C530.763 341.272 531.526 341.588 532.321 341.589Z" fill="white"/>
<path d="M532.321 353.934H553.245C554.04 353.933 554.803 353.616 555.365 353.054C555.928 352.491 556.244 351.729 556.245 350.934V349.761C556.244 348.966 555.928 348.203 555.365 347.641C554.803 347.078 554.04 346.762 553.245 346.761H532.321C531.526 346.762 530.763 347.078 530.201 347.641C529.638 348.203 529.322 348.966 529.321 349.761V350.934C529.322 351.729 529.638 352.491 530.201 353.054C530.763 353.616 531.526 353.933 532.321 353.934Z" fill="white"/>
<path d="M553.675 321.691C553.081 320.237 552.813 318.671 552.89 317.102C552.967 315.533 553.387 314.001 554.12 312.612C554.853 311.223 555.882 310.012 557.134 309.064C558.386 308.115 559.83 307.453 561.366 307.124L611.501 223.1L629.25 238.291L574.387 316.107C574.77 318.724 574.179 321.389 572.728 323.599C571.276 325.809 569.064 327.41 566.511 328.099C563.958 328.787 561.242 328.515 558.876 327.334C556.51 326.153 554.66 324.145 553.675 321.691L553.675 321.691Z" fill="#A0616A"/>
<path d="M601.54 236.722L622.69 248.744C623.292 249.086 623.96 249.294 624.65 249.355C625.339 249.415 626.034 249.326 626.686 249.094C627.338 248.862 627.932 248.492 628.428 248.009C628.925 247.527 629.311 246.943 629.561 246.297L638.327 223.683C640.06 220.594 640.497 216.945 639.542 213.534C638.588 210.124 636.32 207.231 633.236 205.49C630.153 203.749 626.504 203.302 623.091 204.247C619.678 205.191 616.779 207.451 615.029 210.53L600.127 229.566C599.7 230.111 599.396 230.742 599.235 231.415C599.075 232.088 599.061 232.788 599.195 233.467C599.329 234.147 599.608 234.789 600.013 235.35C600.417 235.912 600.938 236.38 601.54 236.722V236.722Z" fill="#2F2E41"/>
<path d="M376.5 266.236H782.5C784.224 266.236 785.877 266.921 787.096 268.14C788.315 269.359 789 271.012 789 272.736C789 274.46 788.315 276.113 787.096 277.332C785.877 278.551 784.224 279.236 782.5 279.236H771V420.736C771 422.46 770.315 424.113 769.096 425.332C767.877 426.551 766.224 427.236 764.5 427.236C762.776 427.236 761.123 426.551 759.904 425.332C758.685 424.113 758 422.46 758 420.736V291.726L685.129 423.804C684.265 425.293 682.846 426.379 681.182 426.823C679.519 427.267 677.747 427.033 676.256 426.172C674.765 425.311 673.677 423.894 673.229 422.231C672.782 420.569 673.013 418.797 673.871 417.304L750.046 279.236H402V279.32L478.129 417.304C478.991 418.797 479.224 420.571 478.778 422.236C478.332 423.901 477.243 425.321 475.75 426.183C474.257 427.045 472.483 427.279 470.818 426.832C469.153 426.386 467.733 425.297 466.871 423.804L402 306.226V420.736C402 422.46 401.315 424.113 400.096 425.332C398.877 426.551 397.224 427.236 395.5 427.236C393.776 427.236 392.123 426.551 390.904 425.332C389.685 424.113 389 422.46 389 420.736V282.664L387.109 279.236H376.5C374.776 279.236 373.123 278.551 371.904 277.332C370.685 276.113 370 274.46 370 272.736C370 271.012 370.685 269.359 371.904 268.14C373.123 266.921 374.776 266.236 376.5 266.236V266.236Z" fill="#3F3D56"/>
<path d="M544.5 262.236H623.5C625.433 262.236 627 263.803 627 265.736C627 267.669 625.433 269.236 623.5 269.236H544.5C542.567 269.236 541 267.669 541 265.736C541 263.803 542.567 262.236 544.5 262.236Z" fill="#CCCCCC"/>
<path d="M491.5 269.236H580.5C582.223 269.234 583.875 268.549 585.094 267.33C586.313 266.112 586.998 264.46 587 262.736V213.736C586.998 212.013 586.313 210.361 585.094 209.142C583.875 207.924 582.223 207.238 580.5 207.236H491.5C489.777 207.238 488.124 207.924 486.906 209.142C485.687 210.361 485.002 212.013 485 213.736V262.736C485.002 264.46 485.687 266.112 486.906 267.33C488.125 268.549 489.777 269.234 491.5 269.236V269.236Z" fill="#CCCCCC"/>
<path d="M536 244.236C532.686 244.236 530 241.55 530 238.236C530 234.922 532.686 232.236 536 232.236C539.314 232.236 542 234.922 542 238.236C542 241.55 539.314 244.236 536 244.236Z" fill="white"/>
</g>
<defs>
<clipPath id="clip0">
<rect width="787.067" height="428.128" fill="white"/>
</clipPath>
</defs>
</svg>
