<svg width="15000" height="12750" viewBox="0 0 15000 12750" fill="none" xmlns="http://www.w3.org/2000/svg">
<path opacity="0.1" d="M1265.99 6707.21C1475.18 7705.98 1918.03 8569.33 2617.79 8988.09C4072.38 9857.9 7352.59 9409.27 9800.61 8893.86C11037.7 8634.37 12160.5 7917.33 12988.4 6858.23L1265.99 6707.21Z" fill="#6C63FF"/>
<path opacity="0.1" d="M14106.9 2003.6H12763.2C12733 2002.52 12704.4 1988.38 12683.4 1964.17C12662.4 1939.96 12650.7 1907.59 12650.7 1873.9C12650.7 1840.2 12662.4 1807.83 12683.4 1783.62C12704.4 1759.41 12733 1745.27 12763.2 1744.19H12995.4C12964.7 1744.19 12935.1 1730.53 12913.4 1706.22C12891.6 1681.9 12879.4 1648.93 12879.4 1614.55C12879.4 1580.16 12891.6 1547.19 12913.4 1522.88C12935.1 1498.56 12964.7 1484.91 12995.4 1484.91H12829.6C12799.4 1483.82 12770.8 1469.68 12749.8 1445.47C12728.8 1421.27 12717.1 1388.89 12717.1 1355.2C12717.1 1321.5 12728.8 1289.13 12749.8 1264.92C12770.8 1240.72 12799.4 1226.57 12829.6 1225.49H13530.9C13375.3 1144.72 13193.4 1087.23 12983.8 1057.08C11071.4 782.853 10388.6 964.188 10147.7 1151.31C9850.6 1381.52 9519.09 1550.87 9164.8 1632.45C7984.88 1904.25 5778.25 2231.25 3778.24 1527.72C2784.2 1177.7 2045.49 1768.96 1602.59 2756.54H14340.2C14323.5 2469.53 14273.7 2204.59 14182.4 1972.51C14161.3 1992.6 14134.6 2003.64 14106.9 2003.6V2003.6Z" fill="#6C63FF"/>
<path opacity="0.1" d="M1150.65 4621.71C1099.05 5202.46 1116.56 5788.29 1202.71 6363.91L12997.1 6845.56C13325.4 6423.86 13601.1 5954.41 13816.5 5450.02L1150.65 4621.71ZM5815.46 5864.24H5583.23C5598.79 5863.68 5614.3 5866.62 5628.83 5872.88C5643.35 5879.15 5656.6 5888.61 5667.79 5900.7C5678.97 5912.8 5687.87 5927.28 5693.94 5943.29C5700.02 5959.3 5703.15 5976.51 5703.15 5993.9C5703.15 6011.29 5700.02 6028.5 5693.94 6044.51C5687.87 6060.52 5678.97 6075 5667.79 6087.1C5656.6 6099.2 5643.35 6108.66 5628.83 6114.92C5614.3 6121.18 5598.79 6124.12 5583.23 6123.56H4239.87C4209.73 6122.48 4181.14 6108.34 4160.16 6084.14C4139.17 6059.95 4127.44 6027.58 4127.44 5993.9C4127.44 5960.22 4139.17 5927.86 4160.16 5903.66C4181.14 5879.46 4209.73 5865.32 4239.87 5864.24H4472.1C4441.32 5864.24 4411.8 5850.58 4390.04 5826.28C4368.28 5801.98 4356.05 5769.01 4356.05 5734.64C4356.05 5700.27 4368.28 5667.31 4390.04 5643C4411.8 5618.7 4441.32 5605.05 4472.1 5605.05H4306.28C4276.13 5603.96 4247.54 5589.83 4226.56 5565.63C4205.58 5541.43 4193.84 5509.07 4193.84 5475.38C4193.84 5441.7 4205.58 5409.34 4226.56 5385.14C4247.54 5360.94 4276.13 5346.81 4306.28 5345.72H5649.63C5679.78 5346.81 5708.37 5360.94 5729.35 5385.14C5750.34 5409.34 5762.07 5441.7 5762.07 5475.38C5762.07 5509.07 5750.34 5541.43 5729.35 5565.63C5708.37 5589.83 5679.78 5603.96 5649.63 5605.05H5815.46C5846.24 5605.05 5875.76 5618.7 5897.52 5643C5919.29 5667.31 5931.51 5700.27 5931.51 5734.64C5931.51 5769.01 5919.29 5801.98 5897.52 5826.28C5875.76 5850.58 5846.24 5864.24 5815.46 5864.24V5864.24Z" fill="#6C63FF"/>
<path opacity="0.1" d="M14339.5 2766.79L1461.96 3116.64C1305.28 3566.2 1201.99 4073.88 1153.78 4601.21H14113.9C14198.5 4291.75 14261.1 3975.32 14301.1 3654.87C14339.6 3345.25 14355.1 3045.73 14339.5 2766.79ZM3768.15 3912.41H3535.9C3551.47 3911.85 3566.97 3914.79 3581.5 3921.06C3596.03 3927.32 3609.28 3936.78 3620.47 3948.87C3631.65 3960.97 3640.55 3975.45 3646.62 3991.46C3652.7 4007.46 3655.83 4024.67 3655.83 4042.06C3655.83 4059.44 3652.7 4076.65 3646.62 4092.66C3640.55 4108.67 3631.65 4123.15 3620.47 4135.25C3609.28 4147.34 3596.03 4156.8 3581.5 4163.06C3566.97 4169.33 3551.47 4172.26 3535.9 4171.7H2192.44C2162.29 4170.62 2133.7 4156.49 2112.72 4132.29C2091.73 4108.1 2080 4075.74 2080 4042.06C2080 4008.38 2091.73 3976.02 2112.72 3951.83C2133.7 3927.63 2162.29 3913.5 2192.44 3912.41H2424.69C2393.91 3912.41 2364.39 3898.76 2342.62 3874.46C2320.85 3850.16 2308.63 3817.2 2308.63 3782.83C2308.63 3748.47 2320.85 3715.51 2342.62 3691.21C2364.39 3666.91 2393.91 3653.26 2424.69 3653.26H2258.85C2228.7 3652.17 2200.11 3638.04 2179.13 3613.84C2158.14 3589.65 2146.41 3557.29 2146.41 3523.61C2146.41 3489.93 2158.14 3457.57 2179.13 3433.38C2200.11 3409.18 2228.7 3395.05 2258.85 3393.96H3602.31C3632.46 3395.05 3661.05 3409.18 3682.04 3433.38C3703.02 3457.57 3714.75 3489.93 3714.75 3523.61C3714.75 3557.29 3703.02 3589.65 3682.04 3613.84C3661.05 3638.04 3632.46 3652.17 3602.31 3653.26H3768.15C3798.93 3653.26 3828.45 3666.91 3850.22 3691.21C3871.99 3715.51 3884.21 3748.47 3884.21 3782.83C3884.21 3817.2 3871.99 3850.16 3850.22 3874.46C3828.45 3898.76 3798.93 3912.41 3768.15 3912.41V3912.41Z" fill="#6C63FF"/>
<path d="M7872.66 6302.88H4436.95C4307.74 6302.88 4203.27 6195.8 4203.27 6063.35V3600.24C4203.27 3467.79 4307.74 3360.72 4436.95 3360.72H7872.66C8001.87 3360.72 8106.34 3467.79 8106.34 3600.24V6062.98C8106.7 6195.43 8001.87 6302.88 7872.66 6302.88Z" fill="white" stroke="#3FB1B5" stroke-width="6" stroke-miterlimit="10" stroke-linecap="round"/>
<path d="M7874.84 6073.8H4472.26C4421.67 6073.8 4380.9 6031.64 4380.9 5980.16V3623.74C4380.9 3571.88 4422.03 3530.1 4472.26 3530.1H7874.84C7925.44 3530.1 7966.21 3572.26 7966.21 3623.74V5979.78C7966.57 6031.64 7925.44 6073.8 7874.84 6073.8Z" fill="#66B0F0" stroke="#66B0F0" stroke-width="6" stroke-miterlimit="10" stroke-linejoin="round"/>
<path d="M4594.2 3750.22H4540.33C4522.86 3750.22 4508.3 3735.67 4508.3 3717.39V3662.17C4508.3 3644.26 4522.49 3629.34 4540.33 3629.34H4594.2C4611.67 3629.34 4626.23 3643.89 4626.23 3662.17V3717.39C4625.87 3735.67 4611.67 3750.22 4594.2 3750.22Z" stroke="white" stroke-width="6" stroke-miterlimit="10" stroke-linecap="round"/>
<path d="M4839.17 3750.22H4785.3C4767.82 3750.22 4753.26 3735.67 4753.26 3717.39V3662.17C4753.26 3644.26 4767.46 3629.34 4785.3 3629.34H4839.17C4856.64 3629.34 4871.2 3643.89 4871.2 3662.17V3717.39C4871.2 3735.67 4856.64 3750.22 4839.17 3750.22Z" stroke="white" stroke-width="6" stroke-miterlimit="10" stroke-linecap="round"/>
<path d="M5084.13 3750.22H5030.26C5012.79 3750.22 4998.23 3735.67 4998.23 3717.39V3662.17C4998.23 3644.26 5012.42 3629.34 5030.26 3629.34H5084.13C5101.6 3629.34 5116.16 3643.89 5116.16 3662.17V3717.39C5116.16 3735.67 5101.96 3750.22 5084.13 3750.22Z" stroke="white" stroke-width="6" stroke-miterlimit="10" stroke-linecap="round"/>
<path d="M6880.06 7142.69H5546.39L5808.1 6302.88H6617.98L6880.06 7142.69Z" fill="white" stroke="#3FB1B5" stroke-width="6" stroke-miterlimit="10" stroke-linecap="round"/>
<path d="M5651.22 6806.54L5808.1 6302.88H6617.98L5651.22 6806.54Z" fill="#3FB1B5"/>
<path d="M7676.83 4302.76H7028.56C6967.78 4302.76 6918.64 4252.39 6918.64 4190.09V3761.04C6918.64 3698.73 6967.78 3648.37 7028.56 3648.37H7676.83C7737.62 3648.37 7786.76 3698.73 7786.76 3761.04V4190.09C7786.76 4252.39 7737.62 4302.76 7676.83 4302.76Z" stroke="white" stroke-width="6" stroke-miterlimit="10" stroke-linecap="round"/>
<path d="M7103.91 3801.33H7598.57" stroke="white" stroke-width="6" stroke-miterlimit="10" stroke-linecap="round"/>
<path d="M7103.91 3916.99H7598.57" stroke="white" stroke-width="6" stroke-miterlimit="10" stroke-linecap="round"/>
<path d="M7103.91 4032.64H7598.57" stroke="white" stroke-width="6" stroke-miterlimit="10" stroke-linecap="round"/>
<path d="M7103.91 4148.3H7598.57" stroke="white" stroke-width="6" stroke-miterlimit="10" stroke-linecap="round"/>
<path d="M7855.91 6073.8H5279.22L5128.17 6295.79C4957.46 6546.5 4596.74 6550.23 4421.3 6302.88L3501.13 5005.65C3539.71 5054.9 3716.25 5000.06 3884.41 4886.64C4055.12 4771.36 4165.41 4626.23 4130.83 4572.5L4768.91 5405.98L4964.37 5052.29C5017.88 4958.65 5106.69 4891.49 5210.07 4866.87L5875.08 4722.48H6448.36L7080.25 4865.37C7190.17 4891.12 7283.36 4964.61 7336.13 5066.47L7855.91 6073.8Z" fill="white" stroke="#3FB1B5" stroke-width="6" stroke-miterlimit="10"/>
<path d="M7148.68 6058.5L6965.59 5688.03" stroke="#3FB1B5" stroke-width="6" stroke-miterlimit="10" stroke-linecap="round"/>
<path d="M5264.66 6093.2L5445.93 5726.46" stroke="#3FB1B5" stroke-width="6" stroke-miterlimit="10" stroke-linecap="round"/>
<path d="M4520.67 5082.51L4935.98 5626.84" stroke="#3FB1B5" stroke-width="6" stroke-miterlimit="10" stroke-linecap="round"/>
<path d="M6233.24 4901.56L6386.12 5092.21L6728.27 4794.49" stroke="#3FB1B5" stroke-width="6" stroke-miterlimit="10" stroke-linecap="round"/>
<path d="M6116.4 4905.29L5967.89 5099.67L5591.89 4794.49" stroke="#3FB1B5" stroke-width="6" stroke-miterlimit="10" stroke-linecap="round"/>
<path d="M4257.5 4739.27C4292.08 4793.37 4181.43 4940.36 4009.63 5057.14C3840.74 5172.05 3661.65 5227.27 3622.71 5177.65" stroke="#3FB1B5" stroke-width="6" stroke-miterlimit="10" stroke-linecap="round"/>
<path d="M4143.21 4833.66C4165.92 4833.66 4184.34 4814.79 4184.34 4791.5C4184.34 4768.22 4165.92 4749.34 4143.21 4749.34C4120.49 4749.34 4102.08 4768.22 4102.08 4791.5C4102.08 4814.79 4120.49 4833.66 4143.21 4833.66Z" stroke="#3FB1B5" stroke-width="6" stroke-miterlimit="10" stroke-linecap="round"/>
<path d="M6174.28 5098.55C6196.99 5098.55 6215.41 5079.68 6215.41 5056.39C6215.41 5033.11 6196.99 5014.24 6174.28 5014.24C6151.56 5014.24 6133.14 5033.11 6133.14 5056.39C6133.14 5079.68 6151.56 5098.55 6174.28 5098.55Z" stroke="#3FB1B5" stroke-width="6" stroke-miterlimit="10" stroke-linecap="round"/>
<path d="M6174.28 5438.06C6196.99 5438.06 6215.41 5419.19 6215.41 5395.9C6215.41 5372.62 6196.99 5353.74 6174.28 5353.74C6151.56 5353.74 6133.14 5372.62 6133.14 5395.9C6133.14 5419.19 6151.56 5438.06 6174.28 5438.06Z" stroke="#3FB1B5" stroke-width="6" stroke-miterlimit="10" stroke-linecap="round"/>
<path d="M5115.06 6313.7L5279.22 6073.8V6313.7H5115.06Z" fill="#3FB1B5"/>
<path d="M3880.41 4875.45C3712.24 4988.87 3535.71 5043.71 3497.13 4994.46C3496.4 4993.72 3496.03 4992.97 3495.31 4991.85C3487.3 4979.54 3488.03 4962.75 3495.31 4942.23C3520.42 4874.7 3624.16 4770.24 3755.92 4681.44C3860.75 4610.56 3964.13 4561.31 4035.83 4546.01C4077.33 4537.43 4108.27 4540.04 4123.19 4556.46L4126.83 4560.94C4161.04 4614.66 4051.12 4760.16 3880.41 4875.45Z" fill="#FE5244"/>
<path d="M3880.41 4875.45C3784.68 4939.99 3686.04 4985.88 3611.79 5003.79L3279.46 4523.25C3233.24 4456.1 3248.52 4363.2 3314.41 4315.82L3613.61 4100.17L3443.99 3804.32C3419.24 3761.41 3433.43 3705.82 3475.65 3680.82C3489.49 3672.62 3504.41 3668.89 3519.33 3668.89C3548.09 3668.89 3576.48 3683.44 3593.22 3710.3L4123.56 4555.71L4127.2 4561.68C4161.05 4614.66 4051.12 4760.16 3880.41 4875.45Z" fill="#FC9D9D"/>
<path d="M3612.88 4103.53L3798.15 4397.9C3815.26 4425.5 3807.61 4462.07 3780.68 4479.98L3739.55 4507.58C3712.61 4525.87 3676.21 4518.03 3658.74 4490.42L3483.66 4221.8" stroke="#9A3B82" stroke-width="6" stroke-miterlimit="10" stroke-linecap="round"/>
<path d="M3658.01 4489.68C3675.85 4517.66 3667.84 4555.34 3640.54 4573.25L3603.05 4597.5C3576.11 4615.03 3540.44 4607.2 3522.97 4579.96" stroke="#9A3B82" stroke-width="6" stroke-miterlimit="10" stroke-linecap="round"/>
<path d="M3350.81 4316.56L3522.25 4577.72C3540.08 4605.71 3532.44 4643.39 3504.41 4661.3L3469.47 4681.07C3443.26 4698.23 3408.68 4691.14 3390.48 4665.03L3291.11 4521.39" stroke="#9A3B82" stroke-width="6" stroke-miterlimit="10" stroke-linecap="round"/>
<path d="M3999.8 4358.72L3912.81 4220.31C3884.05 4174.42 3823.99 4161.73 3779.95 4192.33L3564.1 4342.31C3564.1 4342.31 3626.71 4457.59 3778.86 4366.18L3829.82 4449.38C3725.72 4516.91 3695.87 4659.06 3763.57 4764.64L3999.8 4358.72Z" fill="#FC9D9D"/>
<path d="M3988.52 4362.45L3901.52 4224.04C3872.77 4178.15 3812.71 4165.46 3768.67 4196.06L3564.1 4342.31C3564.1 4342.31 3626.71 4457.59 3778.86 4366.18L3829.82 4449.38C3725.72 4516.91 3695.87 4659.06 3763.57 4764.64" stroke="#9A3B82" stroke-width="6" stroke-miterlimit="10" stroke-linecap="round"/>
<path d="M3880.41 4875.45C3784.68 4939.99 3686.04 4985.88 3611.79 5003.79L3529.16 4884.4C3575.39 4822.47 3658.01 4747.85 3755.93 4681.82C3860.76 4610.93 3964.13 4561.68 4035.84 4546.39C4077.33 4537.8 4108.27 4540.42 4123.19 4556.83L4126.83 4561.31C4127.2 4562.05 4127.56 4562.43 4127.93 4563.17C4128.29 4563.55 4128.29 4563.92 4128.65 4564.67C4129.02 4565.41 4129.38 4565.79 4129.75 4566.53C4154.5 4623.61 4045.66 4763.52 3880.41 4875.45Z" fill="#9A3B82"/>
<path d="M6447.99 4394.17V4722.11C6447.99 4817.25 6319.14 4894.1 6160.8 4894.1C6002.1 4894.1 5873.62 4817.25 5873.62 4722.11V4394.17H6447.99Z" fill="#FC9D9D"/>
<path d="M5957.7 4843.73C5905.65 4812.77 5873.25 4769.49 5873.25 4722.11V4394.17H6448V4485.2C6448 4579.59 6391.94 4664.28 6306.77 4699.72L5957.7 4843.73Z" fill="#9A3B82"/>
<path d="M6608.15 4374.77V4380.36C6608.15 4437.07 6563.38 4482.96 6508.06 4482.96H6442.17C6419.97 4574.74 6339.17 4643.01 6242.34 4643.01H6079.28C5982.82 4643.01 5901.65 4575.11 5879.81 4482.96H5813.93C5758.6 4482.96 5713.83 4437.07 5713.83 4380.36V4374.77C5713.83 4318.06 5758.6 4272.17 5813.93 4272.17H5873.62V4191.21C5873.62 4104.65 5935.86 4033.02 6017.03 4021.08C6034.87 4051.67 6088.74 4124.8 6198.67 4120.69C6250.35 4118.83 6298.4 4108.75 6338.07 4096.82C6385.76 4082.64 6433.44 4112.49 6445.45 4159.12C6447.27 4169.57 6448.36 4180.01 6448.36 4190.83V4271.79H6508.06C6563.02 4271.79 6608.15 4318.06 6608.15 4374.77Z" fill="#FC9D9D"/>
<path d="M6493.86 4271.79H6448V4181.88C6448 4174.04 6446.91 4166.21 6445.09 4159.12C6433.08 4112.49 6385.39 4082.64 6337.71 4096.82C6298.04 4108.75 6250.35 4118.83 6198.3 4120.69C6088.38 4124.8 6034.51 4051.67 6016.67 4021.08C5935.5 4033.02 5873.26 4104.65 5873.26 4191.21V4272.17H5816.11C5816.11 4272.17 5750.6 4029.29 5799.73 3960.64C5848.14 3893.11 5906.38 3922.58 5906.38 3922.58C5906.38 3922.58 5871.44 3720.37 6066.54 3724.1C6261.27 3727.83 6514.61 3959.52 6533.17 4002.05C6562.29 4067.34 6493.86 4271.79 6493.86 4271.79Z" fill="#9A3B82"/>
<path d="M6470.2 4393.79C6470.2 4353.87 6501.87 4321.79 6540.45 4321.79" stroke="#9A3B82" stroke-width="5" stroke-miterlimit="10" stroke-linecap="round"/>
<path d="M5852.14 4393.79C5852.14 4353.87 5820.48 4321.79 5781.89 4321.79" stroke="#9A3B82" stroke-width="5" stroke-miterlimit="10" stroke-linecap="round"/>
<path d="M6356.27 4191.21C6356.27 4191.21 6304.59 4152.41 6238.7 4180.39" stroke="#9A3B82" stroke-width="5" stroke-miterlimit="10" stroke-linecap="round"/>
<path d="M5961.71 4191.21C5961.71 4191.21 6013.39 4152.41 6079.28 4180.39" stroke="#9A3B82" stroke-width="5" stroke-miterlimit="10" stroke-linecap="round"/>
<path d="M6251.45 4466.54C6251.45 4466.54 6223.42 4528.48 6137.52 4496.02" stroke="#9A3B82" stroke-width="5" stroke-miterlimit="10" stroke-linecap="round"/>
<path d="M6133.51 4434.46C6155.71 4435.95 6189.56 4434.46 6189.56 4434.46" stroke="#9A3B82" stroke-width="5" stroke-miterlimit="10" stroke-linecap="round"/>
<path d="M6297.67 4346.78C6307.73 4346.78 6315.87 4332.75 6315.87 4315.44C6315.87 4298.14 6307.73 4284.11 6297.67 4284.11C6287.62 4284.11 6279.47 4298.14 6279.47 4315.44C6279.47 4332.75 6287.62 4346.78 6297.67 4346.78Z" fill="#9A3B82"/>
<path d="M6036.69 4346.78C6046.74 4346.78 6054.89 4332.75 6054.89 4315.44C6054.89 4298.14 6046.74 4284.11 6036.69 4284.11C6026.64 4284.11 6018.49 4298.14 6018.49 4315.44C6018.49 4332.75 6026.64 4346.78 6036.69 4346.78Z" fill="#9A3B82"/>
<path d="M6080 4421.03H5965.35C5943.14 4421.03 5925.31 4402.75 5925.31 4379.99V4262.47C5925.31 4239.71 5943.14 4221.43 5965.35 4221.43H6080C6102.21 4221.43 6120.04 4239.71 6120.04 4262.47V4379.99C6120.41 4402.37 6102.21 4421.03 6080 4421.03Z" stroke="white" stroke-width="5" stroke-miterlimit="10"/>
<path d="M6360.64 4421.03H6245.98C6223.78 4421.03 6205.94 4402.75 6205.94 4379.99V4262.47C6205.94 4239.71 6223.78 4221.43 6245.98 4221.43H6360.64C6382.84 4221.43 6400.68 4239.71 6400.68 4262.47V4379.99C6400.68 4402.37 6382.84 4421.03 6360.64 4421.03Z" stroke="white" stroke-width="5" stroke-miterlimit="10"/>
<path d="M6120.4 4299.03H6205.94" stroke="white" stroke-width="5" stroke-miterlimit="10"/>
<path d="M6390.86 5929.04H5993.01C5956.98 5929.04 5927.5 5899.2 5927.5 5861.89V5645.13C5927.5 5608.19 5956.62 5577.97 5993.01 5577.97H6390.86C6426.89 5577.97 6456.37 5607.82 6456.37 5645.13V5861.89C6456.37 5898.82 6427.26 5929.04 6390.86 5929.04Z" stroke="#66B0F0" stroke-width="6" stroke-miterlimit="10" stroke-linejoin="round"/>
<path d="M6201.94 5841.74H6067.27C6045.79 5841.74 6028.32 5823.83 6028.32 5801.82V5705.19C6028.32 5683.18 6045.79 5665.27 6067.27 5665.27H6201.94C6223.42 5665.27 6240.89 5683.18 6240.89 5705.19V5801.82C6240.89 5823.83 6223.42 5841.74 6201.94 5841.74Z" fill="#66B0F0"/>
<path d="M6332.98 5839.13L6291.49 5810.78C6280.2 5802.94 6273.29 5789.51 6273.29 5774.96V5732.43C6273.29 5717.88 6280.2 5704.45 6291.49 5696.61L6332.98 5668.26C6342.81 5661.54 6355.55 5669 6355.55 5681.69V5826.07C6355.91 5838.38 6342.81 5845.85 6332.98 5839.13Z" fill="#66B0F0"/>
<path d="M11711.7 7150.16H2048.81" stroke="#3FB1B5" stroke-width="6" stroke-miterlimit="10" stroke-linecap="round"/>
<path d="M5159.83 7215.45V11821.6H4906.13V10944.8C4906.13 10863.1 4841.34 10796.7 4761.63 10796.7H2945.68C2865.97 10796.7 2801.18 10863.1 2801.18 10944.8V11821.6H2547.47V7215.45H5159.83Z" fill="white" stroke="#3FB1B5" stroke-width="6" stroke-miterlimit="10" stroke-linecap="round"/>
<path d="M5167.48 7215.45V8437.68L2547.47 10649L2547.84 7215.45H5167.48Z" fill="#D0F0E4"/>
<path d="M4906.14 7566.15V8401.49C4906.14 8479.09 4844.99 8541.77 4769.28 8541.77H2938.4C2862.69 8541.77 2801.54 8479.09 2801.54 8401.49V7566.15C2801.54 7488.54 2862.69 7425.87 2938.4 7425.87H4769.28C4844.99 7425.87 4906.14 7488.54 4906.14 7566.15Z" stroke="#3FB1B5" stroke-width="6" stroke-miterlimit="10" stroke-linecap="round"/>
<path d="M4319.38 9174.52H3418.14L3380.65 8910H4282.25L4319.38 9174.52Z" fill="#FFCF2D"/>
<path d="M4800.21 8757.41C4687.74 8757.41 4596.74 8850.68 4596.74 8965.97V9174.52H3829.82V8965.97C3829.82 8850.68 3920.81 8757.41 4033.29 8757.41H4800.21Z" fill="white" stroke="#3FB1B5" stroke-width="6" stroke-miterlimit="10" stroke-linecap="round"/>
<path d="M4991.31 8910H4224.38C4200.72 8821.96 4121.74 8757.41 4028.19 8757.41H4795.12C4888.66 8757.41 4967.29 8821.96 4991.31 8910Z" fill="white" stroke="#3FB1B5" stroke-width="6" stroke-miterlimit="10" stroke-linecap="round"/>
<path d="M4906.14 9314.8V10150.1C4906.14 10227.7 4844.99 10290.4 4769.28 10290.4H2938.4C2862.69 10290.4 2801.54 10227.7 2801.54 10150.1V9314.8C2801.54 9237.2 2862.69 9174.52 2938.4 9174.52H4769.28C4844.99 9174.52 4906.14 9237.2 4906.14 9314.8Z" stroke="#3FB1B5" stroke-width="6" stroke-miterlimit="10" stroke-linecap="round"/>
<path d="M3478.93 7967.21C3478.93 7900.81 3531.34 7846.71 3596.5 7846.71H4111.54C4176.33 7846.71 4229.11 7900.43 4229.11 7967.21" stroke="#3FB1B5" stroke-width="6" stroke-miterlimit="10" stroke-linecap="round"/>
<path d="M3478.93 9715.87C3478.93 9649.46 3531.34 9595.36 3596.5 9595.36H4111.54C4176.33 9595.36 4229.11 9649.09 4229.11 9715.87" stroke="#3FB1B5" stroke-width="6" stroke-miterlimit="10" stroke-linecap="round"/>
<path d="M11326.9 7215.45H11056.5V11831.6H11326.9V7215.45Z" fill="white" stroke="#3FB1B5" stroke-width="6" stroke-miterlimit="10" stroke-linecap="round"/>
<path d="M6730.82 11831.6H12374.9" stroke="#3FB1B5" stroke-width="6" stroke-miterlimit="10" stroke-linecap="round"/>
<path d="M3315.49 6517.03H3152.06C3152.06 6517.03 2918.75 5520.51 2713.82 5488.06C2508.89 5455.6 2498.34 5839.13 2498.34 5839.13C2498.34 5839.13 2501.98 5256 3014.11 5335.84C3526.61 5415.68 3315.49 6517.03 3315.49 6517.03Z" fill="white" stroke="#3FB1B5" stroke-width="6" stroke-miterlimit="10" stroke-linecap="round"/>
<path d="M2755.68 5361.21C2755.68 5361.21 3222.68 5184.36 3243.79 6502.1" stroke="#3FB1B5" stroke-width="6" stroke-miterlimit="10" stroke-linecap="round"/>
<path d="M3760.66 6502.1H2993V7142.69H3760.66V6502.1Z" fill="#FE5244"/>
<path d="M3922.27 6822.59C3873.49 6844.22 3815.25 6841.61 3761.02 6817.36C3720.98 6799.45 3683.12 6769.98 3652.55 6729.69C3610.33 6673.72 3581.94 6597.24 3581.94 6502.1C3581.94 6271.54 3402.85 6126.78 3329.33 6431.96C3324.23 6453.23 3319.5 6476.36 3315.49 6502.1V6501.36V6499.87C3315.49 6499.12 3315.49 6498 3315.86 6496.88V6495.39C3317.31 6476.36 3322.77 6420.03 3339.52 6352.12C3351.89 6301.76 3370.46 6245.79 3398.12 6193.93C3411.95 6168.19 3427.97 6143.57 3446.9 6121.56C3495.67 6064.1 3562.64 6023.81 3654.01 6023.81C3822.17 6023.81 3945.2 6226.77 3992.15 6428.98C4033.28 6604.7 4016.54 6780.43 3922.27 6822.59Z" fill="white" stroke="#3FB1B5" stroke-width="6" stroke-miterlimit="10" stroke-linecap="round"/>
<path d="M3447.26 6121.56C3447.26 6121.56 3784.32 5875.69 3883.32 6829.67" stroke="#3FB1B5" stroke-width="6" stroke-miterlimit="10" stroke-linecap="round"/>
<path d="M2487.42 5839.13C2487.42 5900.69 2480.5 6136.11 2699.63 6146.93C2918.75 6157.75 2940.59 5818.61 2940.59 5818.61C2940.59 5818.61 2832.85 5518.65 2713.82 5488.06C2512.53 5436.2 2487.42 5839.13 2487.42 5839.13Z" fill="#3FB1B5"/>
<path d="M3581.94 6502.1H3315.49C3377.01 6107.01 3581.94 6255.49 3581.94 6502.1Z" fill="#3FB1B5"/>
<path d="M939.368 3711.42C935 3711.42 930.632 3708.43 929.176 3703.96C927.356 3697.99 930.269 3691.64 935.728 3689.78L969.943 3677.47C975.767 3675.6 981.955 3678.59 983.775 3684.18C985.595 3690.15 982.683 3696.49 977.223 3698.36L943.008 3710.67C941.552 3711.04 940.46 3711.42 939.368 3711.42ZM1025.27 3680.82C1020.9 3680.82 1016.53 3677.84 1015.08 3673.36C1013.26 3667.39 1016.17 3661.05 1021.63 3659.19L1055.85 3646.87C1061.67 3645.01 1067.86 3647.99 1069.68 3653.59C1071.5 3659.56 1068.58 3665.9 1063.13 3667.77L1028.91 3680.08C1027.82 3680.45 1026.36 3680.82 1025.27 3680.82ZM1111.17 3649.86C1106.8 3649.86 1102.44 3646.87 1100.98 3642.4C1099.16 3636.43 1102.07 3630.08 1107.53 3628.22L1141.75 3615.91C1147.57 3614.04 1153.76 3617.03 1155.58 3622.62C1157.4 3628.59 1154.49 3634.93 1149.03 3636.8L1114.81 3649.11C1113.72 3649.86 1112.26 3649.86 1111.17 3649.86ZM1197.07 3619.26C1192.71 3619.26 1188.34 3616.28 1186.88 3611.8C1185.06 3605.83 1187.97 3599.49 1193.43 3597.63L1227.65 3585.31C1233.47 3583.45 1239.66 3586.43 1241.48 3592.03C1243.3 3598 1240.39 3604.34 1234.93 3606.21L1200.71 3618.52C1199.62 3619.26 1198.53 3619.26 1197.07 3619.26ZM1282.98 3588.67C1278.61 3588.67 1274.24 3585.69 1272.78 3581.21C1270.96 3575.24 1273.88 3568.9 1279.34 3567.03L1313.55 3554.72C1319.37 3552.86 1325.56 3555.84 1327.38 3561.44C1329.2 3567.41 1326.29 3573.75 1320.83 3575.61L1286.62 3587.93C1285.52 3588.67 1284.43 3588.67 1282.98 3588.67ZM1369.24 3558.08C1364.87 3558.08 1360.5 3555.09 1359.05 3550.62C1357.23 3544.65 1360.14 3538.31 1365.6 3536.44L1399.82 3524.13C1405.64 3522.26 1411.83 3525.25 1413.65 3530.84C1415.47 3536.81 1412.56 3543.16 1407.1 3545.02L1372.88 3557.33C1371.42 3558.08 1370.33 3558.08 1369.24 3558.08ZM1455.14 3527.49C1450.77 3527.49 1446.41 3524.5 1444.95 3520.02C1443.13 3514.05 1446.04 3507.71 1451.5 3505.85L1485.72 3493.53C1491.54 3491.67 1497.73 3494.65 1499.55 3500.25C1501.37 3506.22 1498.46 3512.56 1493 3514.43L1458.78 3526.74C1457.33 3527.11 1456.23 3527.49 1455.14 3527.49ZM1541.04 3496.89C1536.68 3496.89 1532.31 3493.91 1530.85 3489.43C1529.03 3483.46 1531.94 3477.12 1537.4 3475.25L1571.62 3462.94C1577.44 3461.08 1583.63 3464.06 1585.45 3469.66C1587.27 3475.63 1584.36 3481.97 1578.9 3483.83L1544.68 3496.15C1543.23 3496.52 1542.14 3496.89 1541.04 3496.89ZM1626.95 3466.3C1622.58 3466.3 1618.21 3463.31 1616.75 3458.84C1614.93 3452.87 1617.85 3446.53 1623.31 3444.66L1657.52 3432.35C1663.34 3430.48 1669.53 3433.47 1671.35 3439.06C1673.17 3445.03 1670.26 3451.38 1664.8 3453.24L1630.59 3465.55C1629.49 3465.93 1628.04 3466.3 1626.95 3466.3ZM1712.85 3435.71C1708.48 3435.71 1704.11 3432.72 1702.66 3428.24C1700.84 3422.28 1703.75 3415.93 1709.21 3414.07L1743.42 3401.76C1749.25 3399.89 1755.43 3402.87 1757.25 3408.47C1759.07 3414.44 1756.16 3420.78 1750.7 3422.65L1716.49 3434.96C1715.4 3435.33 1713.94 3435.71 1712.85 3435.71ZM1798.75 3405.11C1794.38 3405.11 1790.01 3402.13 1788.56 3397.65C1786.74 3391.68 1789.65 3385.34 1795.11 3383.47L1829.32 3371.16C1835.15 3369.3 1841.34 3372.28 1843.16 3377.88C1844.98 3383.85 1842.06 3390.19 1836.6 3392.06L1802.39 3404.37C1801.3 3404.74 1799.84 3405.11 1798.75 3405.11ZM1884.65 3374.15C1880.28 3374.15 1875.92 3371.16 1874.46 3366.69C1872.64 3360.72 1875.55 3354.37 1881.01 3352.51L1915.23 3340.2C1921.05 3338.33 1927.24 3341.32 1929.06 3346.91C1930.88 3352.88 1927.97 3359.22 1922.51 3361.09L1888.29 3373.4C1887.2 3374.15 1886.11 3374.15 1884.65 3374.15ZM1970.55 3343.55C1966.19 3343.55 1961.82 3340.57 1960.36 3336.09C1958.54 3330.12 1961.45 3323.78 1966.91 3321.91L2001.13 3309.6C2006.95 3307.74 2013.14 3310.72 2014.96 3316.32C2016.78 3322.29 2013.87 3328.63 2008.41 3330.5L1974.19 3342.81C1973.1 3343.55 1972.01 3343.55 1970.55 3343.55ZM2056.82 3312.96C2052.45 3312.96 2048.08 3309.98 2046.63 3305.5C2044.81 3299.53 2047.72 3293.19 2053.18 3291.32L2087.39 3279.01C2093.22 3277.14 2099.41 3280.13 2101.23 3285.73C2103.05 3291.7 2100.13 3298.04 2094.67 3299.9L2060.46 3312.21C2059 3312.96 2057.91 3312.96 2056.82 3312.96ZM2142.72 3282.37C2138.35 3282.37 2133.98 3279.38 2132.53 3274.91C2130.71 3268.94 2133.62 3262.59 2139.08 3260.73L2173.3 3248.42C2179.12 3246.55 2185.31 3249.54 2187.13 3255.13C2188.95 3261.1 2186.04 3267.44 2180.58 3269.31L2146.36 3281.62C2144.9 3282.37 2143.81 3282.37 2142.72 3282.37ZM2228.62 3251.77C2224.25 3251.77 2219.89 3248.79 2218.43 3244.31C2216.61 3238.34 2219.52 3232 2224.98 3230.14L2259.2 3217.82C2265.02 3215.96 2271.21 3218.94 2273.03 3224.54C2274.85 3230.51 2271.94 3236.85 2266.48 3238.72L2232.26 3251.03C2230.81 3251.77 2229.71 3251.77 2228.62 3251.77ZM2314.52 3221.18C2310.16 3221.18 2305.79 3218.2 2304.33 3213.72C2302.51 3207.75 2305.42 3201.41 2310.88 3199.54L2345.1 3187.23C2350.92 3185.37 2357.11 3188.35 2358.93 3193.95C2360.75 3199.92 2357.84 3206.26 2352.38 3208.12L2318.16 3220.44C2317.07 3220.81 2315.62 3221.18 2314.52 3221.18ZM2400.43 3190.59C2396.06 3190.59 2391.69 3187.6 2390.23 3183.13C2388.41 3177.16 2391.33 3170.81 2396.79 3168.95L2431 3156.64C2436.82 3154.77 2443.01 3157.76 2444.83 3163.35C2446.65 3169.32 2443.74 3175.67 2438.28 3177.53L2404.07 3189.84C2402.97 3190.22 2401.52 3190.59 2400.43 3190.59Z" fill="#374051"/>
<path d="M1326.65 3711.42C1320.46 3711.42 1315.73 3706.57 1315.73 3700.22C1315.73 3599.12 1285.16 3525.62 1224.37 3482.34C1178.87 3449.88 1132.65 3446.9 1132.28 3446.9C1126.09 3446.53 1121.73 3441.3 1122.09 3434.96C1122.45 3428.62 1127.55 3424.14 1133.37 3424.51C1135.56 3424.51 1185.42 3427.5 1236.02 3463.32C1320.1 3523.01 1337.57 3625.23 1337.57 3700.22C1337.57 3706.19 1332.84 3711.42 1326.65 3711.42Z" fill="#C1914F"/>
<path d="M3065.8 3711.42H939.366C935.362 3711.42 931.358 3709.18 929.538 3705.08C927.718 3701.34 928.082 3696.87 930.63 3693.51L1794.74 2512.69C1796.56 2510.08 1799.47 2508.59 1802.39 2508.21C1805.3 2507.84 1808.57 2508.96 1810.76 2511.2L3073.44 3692.02C3076.72 3695 3077.81 3699.85 3076.35 3704.33C3074.53 3708.43 3070.53 3711.42 3065.8 3711.42ZM961.205 3689.03H3037.77L1804.93 2535.82L961.205 3689.03Z" fill="#C1914F"/>
<path d="M748.274 3789.02C696.223 3789.02 654 3745.74 654 3692.39C654 3639.04 696.223 3595.76 748.274 3595.76C800.324 3595.76 842.547 3639.04 842.547 3692.39C842.547 3745.74 800.324 3789.02 748.274 3789.02ZM748.274 3617.77C708.235 3617.77 675.839 3650.98 675.839 3692.02C675.839 3733.06 708.235 3766.26 748.274 3766.26C788.313 3766.26 820.708 3733.06 820.708 3692.02C820.708 3650.98 788.313 3617.77 748.274 3617.77Z" fill="#374051"/>
<path d="M842.55 3692.39H820.711V3777.83H842.55V3692.39Z" fill="#374051"/>
<path d="M1867.91 2439.19C1815.86 2439.19 1773.63 2395.91 1773.63 2342.56C1773.63 2289.21 1815.86 2245.93 1867.91 2245.93C1919.96 2245.93 1962.18 2289.21 1962.18 2342.56C1962.18 2395.54 1919.96 2439.19 1867.91 2439.19ZM1867.91 2267.95C1827.87 2267.95 1795.47 2301.15 1795.47 2342.19C1795.47 2383.23 1827.87 2416.81 1867.91 2416.81C1907.95 2416.81 1940.34 2383.6 1940.34 2342.56C1940.34 2301.52 1907.95 2267.95 1867.91 2267.95Z" fill="#374051"/>
<path d="M1794.75 2192.96H1772.91V2427.63H1794.75V2192.96Z" fill="#374051"/>
<path d="M3235.79 3786.78C3183.73 3786.78 3141.51 3743.5 3141.51 3690.15C3141.51 3636.8 3183.73 3593.52 3235.79 3593.52V3615.91C3195.75 3615.91 3163.35 3649.11 3163.35 3690.15C3163.35 3731.19 3195.75 3764.4 3235.79 3764.4V3786.78Z" fill="#374051"/>
<path d="M9382.13 5339.87C9424.57 5339.87 9466.15 5327.1 9502.09 5303.02C9538.02 5278.94 9566.84 5244.54 9585.22 5203.76C9603.61 5162.99 9610.82 5117.51 9606.01 5072.56C9601.21 5027.62 9584.59 4985.03 9558.07 4949.71C9447.1 4801.89 9204.16 4824.54 9106.97 4666.08C9024.61 4531.8 9100.66 4347.4 9210.35 4237.55C9425.08 4022.48 9768.83 3969.64 10031.8 4111.25C10294.8 4252.86 10458.9 4579.14 10423.9 4890.98C10410.5 5009.75 10379.6 5153.9 10466.1 5230.14C10542.9 5297.81 10656.3 5259.4 10752.7 5232.75C10895.7 5194.34 11044.8 5189.34 11189.8 5218.11C11334.8 5246.88 11472.2 5308.73 11592.6 5399.41C11797.4 5555.86 11946.7 5808.53 11946.8 6077.1C11946.9 6345.66 11775.3 6616.29 11529.7 6676.42C11289 6735.36 11040.9 6592.06 10870.6 6401.37C10700.3 6210.68 10583.4 5973.5 10428.2 5768.71C10273 5563.91 10058.3 5383.52 9811.32 5378.78C9668.24 5376.03 9511.59 5429.7 9390.15 5349" fill="#2F2E41"/>
<path d="M9488.29 5446.8C9752.27 5446.8 9966.26 5218.72 9966.26 4937.36C9966.26 4656 9752.27 4427.91 9488.29 4427.91C9224.31 4427.91 9010.32 4656 9010.32 4937.36C9010.32 5218.72 9224.31 5446.8 9488.29 5446.8Z" fill="#FFB8B8"/>
<path d="M8471.55 8316.93C8463.12 8287.79 8460.79 8257.04 8464.72 8226.83C8468.65 8196.63 8478.74 8167.71 8494.29 8142.12C8509.84 8116.52 8530.47 8094.87 8554.72 8078.69C8578.97 8062.51 8606.25 8052.2 8634.64 8048.47L8780.64 7323.78L9033.83 7598.6L8856.38 8244.65C8859.09 8295.91 8844.06 8346.44 8814.15 8386.68C8784.24 8426.92 8741.52 8454.07 8694.08 8462.98C8646.65 8471.89 8597.79 8461.94 8556.78 8435.02C8515.76 8408.11 8485.44 8366.09 8471.55 8316.93V8316.93Z" fill="#FFB8B8"/>
<path d="M10926.6 11464.6L10692.1 11511.4L9985.24 9036.72L10487 8967.51L10926.6 11464.6Z" fill="#FFB8B8"/>
<path d="M10512 11473.6L10964.3 11383.1L11017.7 11686.6L10280.7 11834C10273.7 11794.1 10274.1 11753.2 10281.9 11713.5C10289.8 11673.8 10304.9 11636.2 10326.3 11602.7C10347.8 11569.3 10375.3 11540.6 10407.1 11518.5C10439 11496.3 10474.6 11481 10512 11473.6V11473.6Z" fill="#2F2E41"/>
<path d="M9390 11597.8L9151.43 11597.8L9115.76 9306.08L9623.56 9306.1L9390 11597.8Z" fill="#FFB8B8"/>
<path d="M8981 11525.2H9441.12V11833.9H8691.29C8691.29 11793.4 8698.78 11753.2 8713.34 11715.8C8727.9 11678.3 8749.24 11644.3 8776.14 11615.6C8803.04 11586.9 8834.98 11564.2 8870.13 11548.7C8905.28 11533.1 8942.95 11525.2 8981 11525.2Z" fill="#2F2E41"/>
<path d="M9005.97 9617.97L9027.88 8497.96C9026.21 8482.2 8853.85 6785.36 8789.62 6351.78C8724.36 5911.19 9061.61 5685.28 9065.01 5683.05C9080.12 5676.46 9093.77 5670.88 9107.39 5665.52C9266.92 5601.18 9440.26 5586.26 9607.41 5622.46C9774.55 5658.66 9928.68 5744.52 10052 5870.12C10179.7 5995.68 10272 6156.71 10318.5 6335.1C10365.1 6513.5 10364.1 6702.2 10315.6 6880L10196.6 7318.99C10806.1 8493.41 10931.1 8998.79 10932.3 9003.75L10932.7 9005.27L10932.6 9006.85C10910.8 9472.62 9093.92 9611.51 9016.59 9617.2L9005.97 9617.97Z" fill="#6726CE"/>
<path d="M8864.24 6142.3L8452.5 7874.57L9189.29 7966.95L8864.24 6142.3Z" fill="#6726CE"/>
<path d="M9859.58 7574.14C9864.62 7544.13 9875.77 7515.65 9892.25 7490.73C9908.73 7465.8 9930.14 7445.03 9954.96 7429.88C9979.79 7414.72 10007.4 7405.56 10035.9 7403.02C10064.4 7400.49 10093.1 7404.64 10120 7415.2L10561.3 6842.4L10668.2 7210.34L10232.7 7697.87C10213.1 7744.75 10178 7782.33 10134.1 7803.48C10090.2 7824.63 10040.6 7827.89 9994.58 7812.64C9948.59 7797.39 9909.44 7764.69 9884.56 7720.73C9859.68 7676.78 9850.79 7624.62 9859.58 7574.14V7574.14Z" fill="#FFB8B8"/>
<path d="M10436 7575.55L10051.8 7310.64L10417.5 6897.99L9426.04 6576.38L9681.12 5784.36L9994.91 5832.14L10792.5 6461.88C10894 6542.56 10961.6 6662.43 10981 6795.72C11000.4 6929.01 10970 7065.09 10896.3 7174.73L10894.5 7176.69L10436 7575.55Z" fill="#6726CE"/>
<path d="M9057.91 4647.8C9263.58 4781.62 9495.46 4863.05 9735.48 4885.76L9664.06 4794.55C9716.06 4815.04 9770.79 4826.62 9826.19 4828.86C9881.53 4827.94 9939.51 4805.23 9970.92 4756.66C9984.93 4732.51 9993.25 4705.12 9995.17 4676.8C9997.1 4648.49 9992.57 4620.09 9981.97 4594.05C9960.21 4542.1 9926.33 4496.95 9883.57 4462.9C9807.76 4398.99 9718.3 4356.05 9623.16 4337.93C9528.02 4319.81 9430.14 4327.05 9338.26 4359.02C9275.24 4379.1 9218.79 4417.69 9175.4 4470.38C9134.23 4524.5 9044.45 4573.18 9065.52 4639.13L9057.91 4647.8Z" fill="#2F2E41"/>
</svg>
