<svg width="15000" height="12750" viewBox="0 0 15000 12750" fill="none" xmlns="http://www.w3.org/2000/svg">
<path opacity="0.1" d="M1032.26 6258.21C1241.45 7256.98 1684.3 8120.33 2384.06 8539.09C3838.65 9408.9 7118.86 8960.27 9566.88 8444.86C10803.9 8185.37 11926.8 7468.33 12754.7 6409.23L1032.26 6258.21Z" fill="#FF52FF"/>
<path opacity="0.1" d="M13873.2 1554.6H12529.4C12499.3 1553.52 12470.7 1539.38 12449.7 1515.17C12428.7 1490.96 12417 1458.59 12417 1424.9C12417 1391.2 12428.7 1358.83 12449.7 1334.62C12470.7 1310.41 12499.3 1296.27 12529.4 1295.19H12761.7C12730.9 1295.19 12701.4 1281.53 12679.6 1257.22C12657.9 1232.9 12645.6 1199.93 12645.6 1165.55C12645.6 1131.16 12657.9 1098.19 12679.6 1073.88C12701.4 1049.56 12730.9 1035.91 12761.7 1035.91H12595.8C12565.7 1034.82 12537.1 1020.68 12516.1 996.473C12495.1 972.267 12483.4 939.893 12483.4 906.198C12483.4 872.503 12495.1 840.129 12516.1 815.922C12537.1 791.716 12565.7 777.575 12595.8 776.49H13297.2C13141.6 695.716 12959.7 638.233 12750 608.078C10837.7 333.853 10154.9 515.188 9914.02 702.313C9616.87 932.516 9285.36 1101.87 8931.07 1183.45C7751.15 1455.25 5544.52 1782.25 3544.51 1078.72C2550.47 728.699 1811.76 1319.96 1368.87 2307.54H14106.4C14089.8 2020.53 14040 1755.59 13948.6 1523.51C13927.6 1543.6 13900.8 1554.64 13873.2 1554.6V1554.6Z" fill="#FF52FF"/>
<path opacity="0.1" d="M916.919 4172.71C865.321 4753.46 882.827 5339.29 968.98 5914.91L12763.3 6396.56C13091.7 5974.86 13367.4 5505.41 13582.8 5001.02L916.919 4172.71ZM5581.73 5415.24H5349.5C5365.07 5414.68 5380.57 5417.62 5395.1 5423.88C5409.62 5430.15 5422.87 5439.61 5434.06 5451.7C5445.24 5463.8 5454.14 5478.28 5460.21 5494.29C5466.29 5510.3 5469.42 5527.51 5469.42 5544.9C5469.42 5562.29 5466.29 5579.5 5460.21 5595.51C5454.14 5611.52 5445.24 5626 5434.06 5638.1C5422.87 5650.2 5409.62 5659.66 5395.1 5665.92C5380.57 5672.18 5365.07 5675.12 5349.5 5674.56H4006.15C3976 5673.48 3947.41 5659.34 3926.43 5635.14C3905.44 5610.95 3893.71 5578.58 3893.71 5544.9C3893.71 5511.22 3905.44 5478.86 3926.43 5454.66C3947.41 5430.46 3976 5416.32 4006.15 5415.24H4238.37C4207.59 5415.24 4178.08 5401.58 4156.31 5377.28C4134.55 5352.98 4122.32 5320.01 4122.32 5285.64C4122.32 5251.27 4134.55 5218.31 4156.31 5194C4178.08 5169.7 4207.59 5156.05 4238.37 5156.05H4072.55C4042.4 5154.96 4013.81 5140.83 3992.83 5116.63C3971.85 5092.43 3960.11 5060.07 3960.11 5026.38C3960.11 4992.7 3971.85 4960.34 3992.83 4936.14C4013.81 4911.94 4042.4 4897.81 4072.55 4896.72H5415.91C5446.05 4897.81 5474.64 4911.94 5495.62 4936.14C5516.61 4960.34 5528.34 4992.7 5528.34 5026.38C5528.34 5060.07 5516.61 5092.43 5495.62 5116.63C5474.64 5140.83 5446.05 5154.96 5415.91 5156.05H5581.73C5612.51 5156.05 5642.03 5169.7 5663.79 5194C5685.56 5218.31 5697.78 5251.27 5697.78 5285.64C5697.78 5320.01 5685.56 5352.98 5663.79 5377.28C5642.03 5401.58 5612.51 5415.24 5581.73 5415.24V5415.24Z" fill="#FF52FF"/>
<path opacity="0.1" d="M14105.8 2317.79L1228.23 2667.64C1071.55 3117.2 968.265 3624.88 920.056 4152.21H13880.2C13964.8 3842.75 14027.3 3526.32 14067.3 3205.87C14105.9 2896.25 14121.3 2596.73 14105.8 2317.79ZM3534.42 3463.41H3302.18C3317.74 3462.85 3333.25 3465.79 3347.77 3472.06C3362.3 3478.32 3375.55 3487.78 3386.74 3499.87C3397.93 3511.97 3406.82 3526.45 3412.9 3542.46C3418.97 3558.46 3422.1 3575.67 3422.1 3593.06C3422.1 3610.44 3418.97 3627.65 3412.9 3643.66C3406.82 3659.67 3397.93 3674.15 3386.74 3686.25C3375.55 3698.34 3362.3 3707.8 3347.77 3714.06C3333.25 3720.33 3317.74 3723.26 3302.18 3722.7H1958.72C1928.57 3721.62 1899.98 3707.49 1878.99 3683.29C1858.01 3659.1 1846.27 3626.74 1846.27 3593.06C1846.27 3559.38 1858.01 3527.02 1878.99 3502.83C1899.98 3478.63 1928.57 3464.5 1958.72 3463.41H2190.96C2160.18 3463.41 2130.66 3449.76 2108.89 3425.46C2087.13 3401.16 2074.9 3368.2 2074.9 3333.83C2074.9 3299.47 2087.13 3266.51 2108.89 3242.21C2130.66 3217.91 2160.18 3204.26 2190.96 3204.26H2025.12C1994.97 3203.17 1966.38 3189.04 1945.4 3164.84C1924.41 3140.65 1912.68 3108.29 1912.68 3074.61C1912.68 3040.93 1924.41 3008.57 1945.4 2984.38C1966.38 2960.18 1994.97 2946.05 2025.12 2944.96H3368.58C3398.73 2946.05 3427.33 2960.18 3448.31 2984.38C3469.29 3008.57 3481.03 3040.93 3481.03 3074.61C3481.03 3108.29 3469.29 3140.65 3448.31 3164.84C3427.33 3189.04 3398.73 3203.17 3368.58 3204.26H3534.42C3565.21 3204.26 3594.73 3217.91 3616.49 3242.21C3638.26 3266.51 3650.49 3299.47 3650.49 3333.83C3650.49 3368.2 3638.26 3401.16 3616.49 3425.46C3594.73 3449.76 3565.21 3463.41 3534.42 3463.41V3463.41Z" fill="#FF52FF"/>
<path d="M4110.89 3047.3H13217V8685H4110.89V3047.3Z" fill="white" stroke="black" stroke-width="10"/>
<path d="M4371.57 3531.6H12956.3V8233.65H4371.57V3531.6Z" fill="white" stroke="black" stroke-width="10"/>
<path d="M13218.1 2716H4102V3221.63H13218.1V2716Z" fill="#6C63FF"/>
<path d="M4389.8 3043.59C4429.44 3043.59 4461.58 3001.64 4461.58 2949.88C4461.58 2898.12 4429.44 2856.16 4389.8 2856.16C4350.15 2856.16 4318.02 2898.12 4318.02 2949.88C4318.02 3001.64 4350.15 3043.59 4389.8 3043.59Z" fill="white"/>
<path d="M4662.25 3043.59C4701.9 3043.59 4734.03 3001.64 4734.03 2949.88C4734.03 2898.12 4701.9 2856.16 4662.25 2856.16C4622.61 2856.16 4590.47 2898.12 4590.47 2949.88C4590.47 3001.64 4622.61 3043.59 4662.25 3043.59Z" fill="white"/>
<path d="M4934.72 3043.59C4974.37 3043.59 5006.5 3001.64 5006.5 2949.88C5006.5 2898.12 4974.37 2856.16 4934.72 2856.16C4895.08 2856.16 4862.94 2898.12 4862.94 2949.88C4862.94 3001.64 4895.08 3043.59 4934.72 3043.59Z" fill="white"/>
<path d="M6396.49 7136.16H10740.4V6164.1C10739.7 6061.6 10723.4 5960.31 10692.3 5866.16C10661.3 5772.02 10616.1 5686.92 10559.6 5615.86L10558.4 5614.35C10480.8 5512.72 10221.5 5254.77 9953.24 5276.64C9811.53 5288.16 9690.2 5377.33 9592.64 5541.67C9288.95 6053.41 8890.03 5880.67 8679.27 5732.16C8493.52 5601.25 8303.83 5539.8 8115.42 5549.58C7851.56 5563.05 7480.16 5689.97 7209.3 6218.09C7105.85 6419.64 6880.87 6693.23 6396.49 6854.02V7136.16Z" fill="#E4E4E4"/>
<path d="M10986.2 7158.76H6404.85C6401.05 7158.76 6397.4 7156.79 6394.71 7153.28C6392.02 7149.77 6390.51 7145.01 6390.51 7140.04V4273.18C6390.51 4268.22 6392.02 4263.45 6394.71 4259.94C6397.4 4256.43 6401.05 4254.46 6404.85 4254.46C6408.65 4254.46 6412.3 4256.43 6414.99 4259.94C6417.68 4263.45 6419.19 4268.22 6419.19 4273.18V7121.32H10986.2C10990 7121.32 10993.6 7123.29 10996.3 7126.81C10999 7130.32 11000.5 7135.08 11000.5 7140.04C11000.5 7145.01 10999 7149.77 10996.3 7153.28C10993.6 7156.79 10990 7158.76 10986.2 7158.76Z" fill="black"/>
<path d="M7276.29 6056.31H7248.17V7132.42H7276.29V6056.31Z" fill="black"/>
<path d="M8118.17 5553.72H8090.05V7132.42H8118.17V5553.72Z" fill="black"/>
<path d="M8961.78 5884.15H8933.66V7132.42H8961.78V5884.15Z" fill="black"/>
<path d="M9805.39 5278.37H9777.27V7132.42H9805.39V5278.37Z" fill="black"/>
<path d="M10649 5700.58H10620.9V7132.42H10649V5700.58Z" fill="black"/>
<path d="M8105.84 5691.34C8153.35 5691.34 8191.87 5641.05 8191.87 5579.02C8191.87 5517 8153.35 5466.71 8105.84 5466.71C8058.33 5466.71 8019.82 5517 8019.82 5579.02C8019.82 5641.05 8058.33 5691.34 8105.84 5691.34Z" fill="#6C63FF"/>
<path d="M9793.06 5397.63C9840.57 5397.63 9879.08 5347.34 9879.08 5285.31C9879.08 5223.29 9840.57 5173 9793.06 5173C9745.55 5173 9707.03 5223.29 9707.03 5285.31C9707.03 5347.34 9745.55 5397.63 9793.06 5397.63Z" fill="#6C63FF"/>
<path d="M8949.45 6003.41C8996.96 6003.41 9035.47 5953.12 9035.47 5891.09C9035.47 5829.06 8996.96 5778.78 8949.45 5778.78C8901.94 5778.78 8863.43 5829.06 8863.43 5891.09C8863.43 5953.12 8901.94 6003.41 8949.45 6003.41Z" fill="#6C63FF"/>
<path d="M7262.24 6168.62C7309.75 6168.62 7348.26 6118.33 7348.26 6056.31C7348.26 5994.28 7309.75 5943.99 7262.24 5943.99C7214.73 5943.99 7176.21 5994.28 7176.21 6056.31C7176.21 6118.33 7214.73 6168.62 7262.24 6168.62Z" fill="#6C63FF"/>
<path d="M10636.7 5801.48C10684.2 5801.48 10722.7 5751.2 10722.7 5689.17C10722.7 5627.14 10684.2 5576.85 10636.7 5576.85C10589.2 5576.85 10550.6 5627.14 10550.6 5689.17C10550.6 5751.2 10589.2 5801.48 10636.7 5801.48Z" fill="#6C63FF"/>
<path d="M5229.59 11797H1220.41C1216.85 11797 1213.44 11795.6 1210.93 11793.2C1208.41 11790.8 1207 11787.4 1207 11784C1207 11780.6 1208.41 11777.2 1210.93 11774.8C1213.44 11772.4 1216.85 11771 1220.41 11771H5229.59C5233.15 11771 5236.56 11772.4 5239.07 11774.8C5241.59 11777.2 5243 11780.6 5243 11784C5243 11787.4 5241.59 11790.8 5239.07 11793.2C5236.56 11795.6 5233.15 11797 5229.59 11797Z" fill="#CACACA"/>
<path d="M14725.8 11771H11985.2C11982.7 11771 11980.4 11769.6 11978.7 11767.2C11977 11764.8 11976 11761.4 11976 11758C11976 11754.6 11977 11751.2 11978.7 11748.8C11980.4 11746.4 11982.7 11745 11985.2 11745H14725.8C14728.3 11745 14730.6 11746.4 14732.3 11748.8C14734 11751.2 14735 11754.6 14735 11758C14735 11761.4 14734 11764.8 14732.3 11767.2C14730.6 11769.6 14728.3 11771 14725.8 11771Z" fill="#CACACA"/>
<path d="M13186.1 11564.7H13017.3L12937 10845.7L13186.2 10845.7L13186.1 11564.7Z" fill="#9E616A"/>
<path d="M13229.2 11745.4L12684.8 11745.4V11737.8C12684.8 11675.8 12707.1 11616.3 12746.8 11572.4C12786.6 11528.5 12840.5 11503.9 12896.7 11503.9H12896.7L13229.2 11503.9L13229.2 11745.4Z" fill="#2F2E41"/>
<path d="M12580.2 11564.7H12411.3L12331 10845.7L12580.2 10845.7L12580.2 11564.7Z" fill="#9E616A"/>
<path d="M12623.2 11745.4L12078.8 11745.4V11737.8C12078.8 11675.8 12101.2 11616.3 12140.9 11572.4C12180.6 11528.5 12234.5 11503.9 12290.7 11503.9H12290.7L12623.2 11503.9L12623.2 11745.4Z" fill="#2F2E41"/>
<path d="M10613.8 6526.57C10627.3 6547.06 10644.7 6564.03 10664.7 6576.29C10684.8 6588.56 10707.1 6595.81 10730 6597.54C10752.9 6599.27 10775.8 6595.44 10797.2 6586.32C10818.6 6577.19 10838 6563 10853.9 6544.74L11188 6688.77L11316.7 6485.98L10842.4 6289.89C10812.8 6262.43 10775.2 6247.9 10736.5 6249.05C10697.9 6250.2 10661 6266.95 10632.9 6296.13C10604.7 6325.3 10587.2 6364.88 10583.7 6407.35C10580.1 6449.82 10590.9 6492.24 10613.8 6526.57V6526.57Z" fill="#9E616A"/>
<path d="M12578 7755.29L12138.2 7913.71L12285.1 11353L12624.6 11362.2L12798.3 8936.82L12837.8 11352.6L13257.5 11378.2L13412.3 7755.29H12578Z" fill="#2F2E41"/>
<path d="M12281.3 5727.91L13410.2 5457.1L13535.7 6530.32L13431.2 7043.12L13473.1 7822.42C13473.1 7822.42 12580.4 8312.95 12138.2 7913.71C12138.2 7913.71 12493.6 6882.98 12287.6 6400.48L12281.3 5727.91Z" fill="#3F3D56"/>
<path d="M12476.8 5879.71L12281.3 5727.91C12281.3 5727.91 12269.7 5710.25 12106.8 5920.54C11943.8 6130.83 11613.3 6465.34 11613.3 6465.34L11062.5 6237.27L10962.1 6646.65L11602.3 6976.05L12508.7 6307.72L12476.8 5879.71Z" fill="#3F3D56"/>
<path d="M13473.3 8224.71C13494 8213.89 13512.4 8198.18 13527 8178.69C13541.7 8159.2 13552.3 8136.39 13558.1 8111.88C13563.9 8087.37 13564.7 8061.76 13560.6 8036.84C13556.5 8011.92 13547.4 7988.31 13534.2 7967.66L13724.6 7632.11L13568.1 7454.62L13305.2 7932.65C13275.3 7959.61 13255.3 7997.75 13249.2 8039.85C13243 8081.95 13251 8125.09 13271.7 8161.09C13292.5 8197.09 13324.4 8223.45 13361.6 8235.18C13398.7 8246.9 13438.4 8243.18 13473.3 8224.72V8224.71Z" fill="#9E616A"/>
<path d="M13234.1 5668.52L13410.2 5457.1C13410.2 5457.1 13606.4 5381.67 13766.7 5771.46C13927 6161.25 14106 6951.89 14106 6951.89L13687.4 7842.08L13362.3 7681.71L13687.4 6945.6L13343.4 6400.47L13234.1 5668.52Z" fill="#3F3D56"/>
<path d="M12935.5 5369.07C13113.1 5261.89 13178.4 5016.07 13081.3 4820C12984.2 4623.94 12761.6 4551.89 12584 4659.06C12406.4 4766.24 12341.1 5012.07 12438.2 5208.13C12535.3 5404.19 12757.9 5476.25 12935.5 5369.07Z" fill="#9E616A"/>
<path d="M13104.4 4690.62L13122.2 4651.15L13032.8 4602.11C13032.8 4602.11 12934.2 4424.96 12755.7 4474.74C12577.3 4524.53 12497 4554.32 12497 4554.32L12407.8 4603.85L12452.6 4653.01L12372.3 4682.81L12425.9 4712.23L12363.5 4751.83L12397.1 4954.84C12397.1 4954.84 12452.9 4800.87 12560.2 4859.71C12667.5 4918.55 12863.7 4829.29 12863.7 4829.29L13034.1 5193.52C13034.1 5193.52 13069.3 5065.84 13132 5099.89C13132 5099.89 13292.2 4818.24 13104.4 4690.62Z" fill="#2F2E41"/>
<path d="M4253.52 8464.26C4236.05 8453.67 4216.18 8446.63 4195.33 8443.64C4174.47 8440.64 4153.14 8441.77 4132.83 8446.94C4112.51 8452.1 4093.72 8461.18 4077.76 8473.54C4061.8 8485.9 4049.07 8501.23 4040.46 8518.45L3710.43 8510.67L3656.22 8688.61L4122.46 8693.76C4155.82 8704.75 4192.54 8704.43 4225.66 8692.86C4258.77 8681.3 4285.99 8659.28 4302.14 8630.99C4318.3 8602.7 4322.27 8570.11 4313.31 8539.38C4304.35 8508.65 4283.08 8481.92 4253.52 8464.26L4253.52 8464.26Z" fill="#FFB8B8"/>
<path d="M3883.37 8748.7C3903.94 8731.58 3916.45 8708.11 3918.33 8683.06L3931.53 8506.17C3932.75 8489.98 3929.48 8473.77 3921.99 8458.98C3914.51 8444.2 3903.04 8431.29 3888.62 8421.42L3356.53 8056.37L3047.23 7721.1C3015.88 7687.21 2971.27 7665.26 2922.44 7659.7C2873.62 7654.14 2824.26 7665.39 2784.39 7691.16L2784.39 7691.17C2763.64 7704.62 2746.1 7721.61 2732.79 7741.17C2719.47 7760.73 2710.63 7782.46 2706.81 7805.09C2702.98 7827.73 2704.23 7850.82 2710.48 7873.02C2716.73 7895.21 2727.87 7916.08 2743.24 7934.4L3103.51 8363.91L3360 8606.47C3441.54 8683.21 3548.32 8734.78 3664.88 8753.71L3788.63 8773.56C3803.92 8776 3819.61 8775.55 3834.69 8772.21C3849.77 8768.88 3863.89 8762.74 3876.13 8754.2C3878.65 8752.45 3881.06 8750.62 3883.37 8748.7Z" fill="#6C63FF"/>
<path d="M1445.25 11517.9L1616.13 11556L1862.08 10985.5L1609.86 10929.3L1445.25 11517.9Z" fill="#FFB8B8"/>
<path d="M1750.4 11539.6L1420.82 11466.1L1369 11651.4L1906.09 11771.2C1912.9 11746.9 1914.27 11721.6 1910.13 11696.8C1905.98 11672 1896.41 11648.1 1881.95 11626.6C1867.5 11605.1 1848.44 11586.4 1825.87 11571.4C1803.29 11556.5 1777.65 11545.7 1750.4 11539.6V11539.6Z" fill="#2F2E41"/>
<path d="M2987.61 11625.1L3163.75 11625.1L3247.5 11018.4L2987.55 11018.4L2987.61 11625.1Z" fill="#FFB8B8"/>
<path d="M3289.57 11580.2H2949.87V11771.2H3503.45C3503.45 11746.1 3497.92 11721.3 3487.17 11698.1C3476.42 11674.9 3460.67 11653.9 3440.81 11636.1C3420.95 11618.4 3397.37 11604.3 3371.42 11594.7C3345.47 11585.1 3317.66 11580.2 3289.57 11580.2V11580.2Z" fill="#2F2E41"/>
<path d="M3063.98 7246.06C2854.98 7246.06 2685.55 7094.77 2685.55 6908.14C2685.55 6721.5 2854.98 6570.21 3063.98 6570.21C3272.97 6570.21 3442.4 6721.5 3442.4 6908.14C3442.4 7094.77 3272.97 7246.06 3063.98 7246.06Z" fill="#FFB8B8"/>
<path d="M3064.7 6920.11C3064 6874.92 2976.89 6869.25 2949.76 6907.78C2922.62 6946.3 2940.03 6996.56 2963.94 7036.67C2988.83 7078.43 3021.11 7120.6 3016.13 7168.03C3014.42 7180 3009.35 7191.39 3001.38 7201.14C2993.41 7210.89 2982.81 7218.68 2970.57 7223.79C2958.32 7228.9 2944.83 7231.15 2931.34 7230.35C2917.86 7229.55 2904.82 7225.71 2893.44 7219.19C2769.84 7151.23 2665.49 7052.3 2619.32 6931.73C2570.76 6804.93 2595.03 6653.76 2700.05 6556.34C2805.07 6458.91 2993.34 6431.36 3117.99 6509.24L3330.76 6379.83C3335.77 6376.68 3341.75 6375 3347.88 6375C3354 6375 3359.98 6376.7 3364.98 6379.86C3369.99 6383.02 3373.77 6387.48 3375.83 6392.64C3377.88 6397.79 3378.09 6403.39 3376.44 6408.66L3345.33 6498.95L3452.79 6474.81C3457.37 6473.67 3462.23 6473.8 3466.73 6475.17C3471.23 6476.54 3475.16 6479.1 3478.01 6482.49C3480.86 6485.89 3482.5 6489.98 3482.7 6494.22C3482.91 6498.47 3481.67 6502.67 3479.16 6506.27L3442.27 6557.46C3491.47 6521.31 3576.47 6562.5 3583.52 6618.25C3590.57 6674 3539.83 6725.4 3480.16 6746.4C3420.5 6767.4 3353.86 6765.01 3289.59 6762.29C3296.52 6790.06 3293.46 6819.07 3280.86 6845.19C3268.25 6871.32 3246.73 6893.22 3219.37 6907.79C3163.78 6936.56 3087.03 6929.77 3064.7 6920.11Z" fill="#2F2E41"/>
<path d="M2982.71 11368.9C2983.44 11368.9 2984.17 11368.9 2984.91 11368.9L3256.98 11361.3C3266.21 11361.1 3275.3 11359.2 3283.7 11355.7C3292.1 11352.3 3299.65 11347.4 3305.89 11341.3C3312.14 11335.2 3316.97 11328.1 3320.08 11320.3C3323.2 11312.6 3324.55 11304.3 3324.04 11296.1L3187.97 9064.88L2142.43 9329.66L1456.81 11239.1C1453.53 11248.3 1452.67 11258 1454.32 11267.5C1455.96 11277 1460.06 11286 1466.28 11293.8C1472.51 11301.7 1480.7 11308.1 1490.19 11312.6C1499.69 11317.2 1510.23 11319.7 1520.99 11319.9L1834.36 11327.3C1848.51 11327.6 1862.41 11324 1874.23 11317.1C1886.05 11310.1 1895.24 11300.1 1900.58 11288.4L2605.79 9713.17C2607.67 9708.95 2611.06 9705.41 2615.43 9703.09C2619.79 9700.77 2624.89 9699.8 2629.94 9700.33C2634.99 9700.86 2639.7 9702.86 2643.34 9706.01C2646.99 9709.17 2649.37 9713.32 2650.11 9717.81L2914.15 11316.1C2916.58 11330.7 2924.84 11344.2 2937.43 11353.9C2950.01 11363.6 2966.08 11368.9 2982.71 11368.9V11368.9Z" fill="#2F2E41"/>
<path d="M2193.17 9624.66C2267.44 9624.61 2339.8 9603.61 2399.91 9564.66L2736.34 9347.8C2810.17 9300.31 2895.68 9269.37 2985.7 9257.56L3147.58 9236.48C3172.43 9233.3 3195.07 9221.97 3211.09 9204.71C3227.11 9187.45 3235.37 9165.48 3234.27 9143.08L3169.75 7763.8L3208.05 7567.17C3211.14 7551.14 3209.02 7534.66 3201.94 7519.67C3194.86 7504.68 3183.11 7491.83 3168.1 7482.62L2868.24 7299.42C2844.62 7285 2816.19 7278.23 2787.67 7280.23L2776.71 7281C2746.01 7283.14 2716.83 7293.86 2693.32 7311.62C2669.81 7329.39 2653.16 7353.31 2645.71 7380L2634.21 7421.06L2434.72 7737.76C2375.76 7831.35 2331.45 7931.72 2303.02 8036.06L2113.91 8730.04C2097.47 8790.41 2086.09 8851.8 2079.86 8913.68L2017.23 9537.76C2015.8 9551.26 2019.33 9564.81 2027.27 9576.37C2035.22 9587.93 2047.15 9596.88 2061.28 9601.86C2103.22 9616.89 2147.98 9624.63 2193.17 9624.66V9624.66Z" fill="#6C63FF"/>
<path d="M2820.75 9124.84C2824.87 9106.34 2824.4 9087.26 2819.37 9068.94C2814.33 9050.62 2804.86 9033.51 2791.63 9018.82C2778.39 9004.12 2761.7 8992.2 2742.74 8983.88C2723.78 8975.57 2703.02 8971.07 2681.9 8970.69L2561.42 8696.21L2356.77 8720.9L2533 9106.4C2534.66 9138.12 2549.28 9168.2 2574.11 9190.93C2598.93 9213.67 2632.24 9227.48 2667.71 9229.75C2703.17 9232.02 2738.34 9222.6 2766.55 9203.26C2794.76 9183.93 2814.05 9156.02 2820.75 9124.84V9124.84Z" fill="#FFB8B8"/>
<path d="M2383.24 8931.12C2408.91 8941.38 2437.99 8942.53 2464.56 8934.32L2652.15 8876.3C2669.33 8871.01 2684.78 8862 2697.11 8850.09C2709.45 8838.18 2718.3 8823.72 2722.86 8808.02L2892.23 8228.23L3117.61 7843.28C3140.36 7804.3 3145.63 7759.05 3132.35 7716.73C3119.08 7674.41 3088.25 7638.19 3046.15 7615.43L3046.14 7615.43C3024.19 7603.61 2999.83 7595.8 2974.47 7592.46C2949.11 7589.12 2923.26 7590.32 2898.42 7595.98C2873.58 7601.64 2850.26 7611.66 2829.79 7625.45C2809.33 7639.24 2792.14 7656.52 2779.23 7676.29L2476.49 8139.86L2326.16 8445.27C2278.75 8542.22 2267.14 8650.13 2293 8753.37L2320.71 8862.88C2324.14 8876.41 2330.72 8889.14 2340.04 8900.24C2349.35 8911.35 2361.17 8920.57 2374.75 8927.32C2377.53 8928.7 2380.36 8929.97 2383.24 8931.12Z" fill="#6C63FF"/>
<g opacity="0.8">
<path d="M11735 4607.81H11013.7V4670.96H11735V4607.81Z" fill="#3F3D56"/>
<path d="M11735 4840.44H11013.7V4903.58H11735V4840.44Z" fill="#3F3D56"/>
<path d="M11735 5048.83H11013.7V5111.97H11735V5048.83Z" fill="#3F3D56"/>
<path d="M10742.4 4639.39C10742.4 4623.09 10747.4 4607.16 10756.6 4593.62C10765.8 4580.07 10778.9 4569.51 10794.2 4563.27C10809.5 4557.04 10826.4 4555.4 10842.6 4558.58C10858.9 4561.76 10873.9 4569.61 10885.6 4581.13C10897.3 4592.65 10905.3 4607.33 10908.5 4623.31C10911.8 4639.3 10910.1 4655.86 10903.8 4670.92C10897.4 4685.97 10886.7 4698.84 10872.9 4707.89C10859.1 4716.94 10842.9 4721.77 10826.3 4721.77V4721.77C10804.1 4721.75 10782.7 4713.06 10767 4697.62C10751.3 4682.17 10742.5 4661.23 10742.4 4639.39V4639.39Z" fill="#6C63FF"/>
<path d="M10742.4 4872.01C10742.4 4855.71 10747.4 4839.79 10756.6 4826.24C10765.8 4812.69 10778.9 4802.13 10794.2 4795.89C10809.5 4789.66 10826.4 4788.03 10842.6 4791.21C10858.9 4794.38 10873.9 4802.23 10885.6 4813.75C10897.3 4825.27 10905.3 4839.95 10908.5 4855.94C10911.8 4871.92 10910.1 4888.48 10903.8 4903.54C10897.4 4918.59 10886.7 4931.46 10872.9 4940.51C10859.1 4949.56 10842.9 4954.4 10826.3 4954.4V4954.4C10804.1 4954.37 10782.7 4945.68 10767 4930.24C10751.3 4914.79 10742.5 4893.85 10742.4 4872.01Z" fill="#6C63FF"/>
<path d="M10742.4 5080.4C10742.4 5064.1 10747.4 5048.17 10756.6 5034.63C10765.8 5021.08 10778.9 5010.52 10794.2 5004.28C10809.5 4998.05 10826.4 4996.41 10842.6 4999.59C10858.9 5002.77 10873.9 5010.62 10885.6 5022.14C10897.3 5033.66 10905.3 5048.34 10908.5 5064.32C10911.8 5080.31 10910.1 5096.87 10903.8 5111.93C10897.4 5126.98 10886.7 5139.85 10872.9 5148.9C10859.1 5157.95 10842.9 5162.78 10826.3 5162.78C10804.1 5162.76 10782.7 5154.07 10767 5138.63C10751.3 5123.18 10742.5 5102.24 10742.4 5080.4V5080.4Z" fill="#6C63FF"/>
<path d="M10035.6 5194L10025 5185.91L10296.5 4842.45H10651.6V4855.64H10303.1L10035.6 5194Z" fill="#3F3D56"/>
</g>
<path d="M5741.37 5788.53H4734V5863.74H5741.37V5788.53Z" fill="#3F3D56"/>
<path d="M5741.37 6065.62H4734V6140.83H5741.37V6065.62Z" fill="#3F3D56"/>
<path d="M5741.37 6313.84H4734V6389.06H5741.37V6313.84Z" fill="#3F3D56"/>
<path d="M6003.17 5924.27C5980 5924.27 5957.36 5918.52 5938.1 5907.73C5918.84 5896.95 5903.83 5881.62 5894.96 5863.69C5886.1 5845.76 5883.78 5826.03 5888.3 5806.99C5892.82 5787.95 5903.97 5770.47 5920.35 5756.74C5936.73 5743.02 5957.6 5733.67 5980.32 5729.89C6003.04 5726.1 6026.58 5728.04 6047.99 5735.47C6069.39 5742.9 6087.68 5755.48 6100.55 5771.61C6113.41 5787.75 6120.28 5806.73 6120.28 5826.14C6120.28 5839.02 6117.25 5851.78 6111.37 5863.69C6105.48 5875.6 6096.86 5886.42 6085.98 5895.53C6075.11 5904.64 6062.19 5911.87 6047.99 5916.8C6033.78 5921.73 6018.55 5924.27 6003.17 5924.27Z" fill="#6C63FF"/>
<path d="M6003.17 6201.36C5980 6201.36 5957.36 6195.6 5938.1 6184.82C5918.84 6174.04 5903.83 6158.71 5894.96 6140.78C5886.1 6122.85 5883.78 6103.12 5888.3 6084.08C5892.82 6065.04 5903.97 6047.56 5920.35 6033.83C5936.73 6020.11 5957.6 6010.76 5980.32 6006.97C6003.04 6003.19 6026.58 6005.13 6047.99 6012.56C6069.39 6019.99 6087.68 6032.57 6100.55 6048.7C6113.41 6064.84 6120.28 6083.82 6120.28 6103.22C6120.28 6116.11 6117.25 6128.87 6111.37 6140.78C6105.48 6152.69 6096.86 6163.5 6085.98 6172.62C6075.11 6181.73 6062.19 6188.96 6047.98 6193.89C6033.78 6198.82 6018.55 6201.36 6003.17 6201.36H6003.17Z" fill="#6C63FF"/>
<path d="M6003.17 6449.58C5980 6449.58 5957.36 6443.83 5938.1 6433.04C5918.84 6422.26 5903.83 6406.93 5894.96 6389C5886.1 6371.07 5883.78 6351.34 5888.3 6332.3C5892.82 6313.27 5903.97 6295.78 5920.35 6282.06C5936.73 6268.33 5957.6 6258.98 5980.32 6255.2C6003.04 6251.41 6026.58 6253.35 6047.99 6260.78C6069.39 6268.21 6087.68 6280.79 6100.55 6296.93C6113.41 6313.07 6120.28 6332.04 6120.28 6351.45C6120.28 6364.34 6117.25 6377.1 6111.37 6389C6105.48 6400.91 6096.86 6411.73 6085.98 6420.84C6075.11 6429.95 6062.19 6437.18 6047.98 6442.11C6033.78 6447.05 6018.55 6449.58 6003.17 6449.58H6003.17Z" fill="#6C63FF"/>
<path d="M7107.5 6486.77L6733.91 6083.72H6247.17V6068.01H6743.09L6745.9 6071.05L7122.3 6477.14L7107.5 6486.77Z" fill="#3F3D56"/>
<path d="M5302.15 10912.4C5317.93 10952.9 5313.29 11036.3 5233.86 11035.2C5135.35 11033.7 5137.87 10743.9 5137.87 10743.9C5137.87 10743.9 5238.51 10749 5302.15 10912.4Z" fill="#3FB1B5"/>
<path d="M4384.59 10814.4C4359.93 10871.4 4393.08 10917.3 4420.92 10901.6C4469.58 10873.9 4490.53 10802.8 4490.53 10802.8C4490.53 10802.8 4406.73 10763.5 4384.59 10814.4Z" fill="#3FB1B5"/>
<path d="M5300.83 10912.4C5248.05 10797 5188.52 10742.2 5093.18 10742.2C4932.61 10742.2 4829.58 10929.8 4809.96 11172.4C4807.57 11142.3 4779.06 11111.4 4776.94 11080.2C4748.3 10664.7 4956.87 10500.9 5113.34 10500.9C5241.42 10500.7 5273.38 10701.7 5300.83 10912.4Z" fill="white" stroke="#3FB1B5" stroke-width="6" stroke-miterlimit="10"/>
<path d="M4777.07 11178.2C4748.43 10762.7 4966.68 10598.9 5110.82 10598.9C5190.77 10598.9 5240.89 10650.4 5279.48 10767.7" stroke="#3FB1B5" stroke-width="6" stroke-miterlimit="10"/>
<path d="M4176.28 10325.6C4133.45 10371.9 4056.02 10561.8 4151.89 10599.5C4247.75 10637.2 4360.06 10265.4 4360.06 10265.4C4360.06 10265.4 4278.78 10214.6 4176.28 10325.6Z" fill="#FFCF2D" stroke="#FFCF2D" stroke-width="6" stroke-miterlimit="10"/>
<path d="M4966.68 11188.4L4932.48 11390.9C4915.24 11492.6 4834.09 11566.4 4739.42 11566.4C4644.74 11566.4 4563.59 11492.6 4546.36 11390.9L4512.15 11188.4C4512.15 11178.3 4514.27 11168.6 4517.98 11159.9C4545.43 11190 4634.67 11212 4740.34 11212C4844.56 11212 4932.61 11190.6 4961.51 11161.4C4964.83 11169.6 4966.68 11178.9 4966.68 11188.4Z" fill="#D0F0E4"/>
<path d="M4944.28 11140.4C4944.28 11169 4852.92 11192.2 4740.21 11192.2C4627.5 11192.2 4536.15 11169 4536.15 11140.4C4536.15 11138.1 4536.68 11135.9 4537.87 11133.7C4550.86 11108.3 4636.52 11088.7 4740.21 11088.7C4847.08 11088.7 4934.73 11109.6 4943.48 11136C4944.01 11137.5 4944.28 11138.9 4944.28 11140.4Z" fill="#66B0F0"/>
<path d="M4813.4 10838.3C4813.4 10958.1 4798.29 11071.3 4771.37 11170.9H4693.94C4693.67 10667.6 4525.54 10259.9 4318.29 10259.9C4264.46 10259.9 4213.28 10287.4 4167 10336.9C4303.31 10162.8 4359.93 10115 4437.76 10115C4623.66 10115 4813.4 10438.8 4813.4 10838.3Z" fill="white" stroke="#FFCF2D" stroke-width="6" stroke-miterlimit="10"/>
<path d="M4253.72 10230.8C4298.01 10195.6 4326.51 10179.3 4377.3 10179.3C4584.68 10179.3 4794.58 10557.1 4739.28 11170.8" stroke="#FFCF2D" stroke-width="6" stroke-miterlimit="10"/>
<path d="M4739.81 11170.8C4739.81 11170.8 4751.22 10698.2 4515.33 10696.6C4452.88 10696.2 4394.4 10804.3 4394.4 10804.3C4394.4 10804.3 4670.6 10725.5 4684.26 11170.8H4739.81Z" fill="white" stroke="#3FB1B5" stroke-width="6" stroke-miterlimit="10"/>
<path d="M4710.91 11172.2C4714.22 11039.1 4683.46 10717.7 4445.05 10734.9" stroke="#3FB1B5" stroke-width="6" stroke-miterlimit="10"/>
<path d="M4393.34 10356C4405.43 10356 4415.22 10345.3 4415.22 10332.1C4415.22 10318.9 4405.43 10308.2 4393.34 10308.2C4381.26 10308.2 4371.46 10318.9 4371.46 10332.1C4371.46 10345.3 4381.26 10356 4393.34 10356Z" fill="white" stroke="#FFCF2D" stroke-width="6" stroke-miterlimit="10"/>
<path d="M4909.01 11039.1C4926.65 11039.1 4940.96 11023.4 4940.96 11004.2C4940.96 10984.9 4926.65 10969.3 4909.01 10969.3C4891.36 10969.3 4877.05 10984.9 4877.05 11004.2C4877.05 11023.4 4891.36 11039.1 4909.01 11039.1Z" fill="white" stroke="#FFCF2D" stroke-width="6" stroke-miterlimit="10"/>
<path d="M4855.97 10366.1C4889.29 10366.1 4916.3 10336.6 4916.3 10300.3C4916.3 10263.9 4889.29 10234.4 4855.97 10234.4C4822.65 10234.4 4795.64 10263.9 4795.64 10300.3C4795.64 10336.6 4822.65 10366.1 4855.97 10366.1Z" fill="#D0F0E4"/>
<path d="M5014.42 11795.8L4960.98 11505.3C4956.48 11480.5 4926.24 11474.7 4914.31 11496.5C4840.59 11630.4 4640.37 11631.2 4565.45 11497.8L4564.13 11495.3C4552.06 11473.9 4522.09 11479.7 4517.58 11504.3L4464.02 11795.7" stroke="#66B0F0" stroke-width="6" stroke-miterlimit="10"/>
<path d="M4739.28 11597.5V11797.1" stroke="#66B0F0" stroke-width="6" stroke-miterlimit="10"/>
</svg>
