<svg width="647" height="619" viewBox="0 0 647 619" fill="none" xmlns="http://www.w3.org/2000/svg">
<path d="M324.105 429.7C383.254 429.7 431.205 381.75 431.205 322.6C431.205 263.45 383.254 215.5 324.105 215.5C264.955 215.5 217.005 263.45 217.005 322.6C217.005 381.75 264.955 429.7 324.105 429.7Z" fill="url(#paint0_linear)"/>
<path d="M555.505 187.2L476.705 161.6C460.805 156.4 446.905 146.3 437.005 132.8L388.305 65.7C356.605 22.1 291.705 22.1 260.005 65.7L211.305 132.8C201.505 146.3 187.605 156.4 171.705 161.6L92.8048 187.2C41.6048 203.9 21.5047 265.7 53.2047 309.2L101.905 376.3C111.705 389.8 117.005 406.2 117.005 422.9V505.8C117.005 559.7 169.605 597.9 220.805 581.2L299.605 555.6C315.505 550.4 332.705 550.4 348.605 555.6L427.405 581.2C478.705 597.9 531.205 559.7 531.205 505.8V422.9C531.205 406.2 536.505 389.8 546.305 376.3L595.005 309.2C626.805 265.7 606.705 203.9 555.505 187.2ZM324.105 484.8C234.705 484.8 162.005 412.1 162.005 322.7C162.005 233.3 234.705 160.5 324.105 160.5C413.505 160.5 486.305 233.2 486.305 322.6C486.305 412 413.505 484.8 324.105 484.8Z" fill="url(#paint1_linear)"/>
<defs>
<linearGradient id="paint0_linear" x1="217.025" y1="322.64" x2="431.185" y2="322.64" gradientUnits="userSpaceOnUse">
<stop stop-color="#7100FF"/>
<stop offset="1" stop-color="#E100FF"/>
</linearGradient>
<linearGradient id="paint1_linear" x1="37.8772" y1="309.092" x2="610.32" y2="309.092" gradientUnits="userSpaceOnUse">
<stop stop-color="#7100FF"/>
<stop offset="1" stop-color="#E100FF"/>
</linearGradient>
</defs>
</svg>
